<svg width="60" height="77" viewBox="0 0 60 77" fill="none" xmlns="http://www.w3.org/2000/svg">
<rect width="60" height="77" fill="#0D0D0D"/>
<path fill-rule="evenodd" clip-rule="evenodd" d="M38.4 28.6H21.6V32H38.4V28.6ZM21 32V32.5V40.4V41H21.6H38.4H39V40.4V32.5V32V28.6V28H38.4H21.6H21V28.6V32ZM38.4 40.4V32.5H21.6V40.4H38.4ZM37 38H33V38.5H37V38Z" fill="#8A8A8A"/>
<path d="M20.731 54.735L21.2564 55.0247L21.5415 54.5076L21.0291 54.2143L20.731 54.735ZM19.29 53.91L19.5881 53.3893L19.0176 53.0627L18.7443 53.6605L19.29 53.91ZM19.29 52.59L18.7503 52.8521L19.0325 53.4331L19.5911 53.109L19.29 52.59ZM20.731 51.754L21.0321 52.273L21.5426 51.9768L21.2549 51.4615L20.731 51.754ZM18.245 56.754C19.5334 56.754 20.674 56.0812 21.2564 55.0247L20.2056 54.4453C19.842 55.1048 19.1126 55.554 18.245 55.554V56.754ZM21.0291 54.2143L19.5881 53.3893L18.9919 54.4307L20.4329 55.2557L21.0291 54.2143ZM18.7443 53.6605C18.6847 53.7909 18.521 53.926 18.223 53.926V55.126C18.893 55.126 19.5433 54.7991 19.8357 54.1595L18.7443 53.6605ZM18.223 53.926C18.014 53.926 17.8608 53.8528 17.7602 53.751C17.6599 53.6494 17.58 53.4866 17.58 53.25H16.38C16.38 53.7724 16.5641 54.2476 16.9065 54.5943C17.2487 54.9407 17.717 55.126 18.223 55.126V53.926ZM17.58 53.25C17.58 53.0134 17.6599 52.8506 17.7603 52.749C17.8608 52.6472 18.014 52.574 18.223 52.574V51.374C17.717 51.374 17.2487 51.5593 16.9065 51.9057C16.5641 52.2524 16.38 52.7276 16.38 53.25H17.58ZM18.223 52.574C18.5107 52.574 18.6775 52.7023 18.7503 52.8521L19.8297 52.3279C19.5285 51.7077 18.9033 51.374 18.223 51.374V52.574ZM19.5911 53.109L21.0321 52.273L20.4299 51.235L18.9889 52.071L19.5911 53.109ZM21.2549 51.4615C20.6714 50.4167 19.5202 49.746 18.245 49.746V50.946C19.1038 50.946 19.8446 51.3973 20.2071 52.0465L21.2549 51.4615ZM18.245 49.746C16.2401 49.746 14.73 51.2811 14.73 53.25H15.93C15.93 51.9409 16.9059 50.946 18.245 50.946V49.746ZM14.73 53.25C14.73 55.2189 16.2401 56.754 18.245 56.754V55.554C16.9059 55.554 15.93 54.5591 15.93 53.25H14.73ZM25.4806 50.5V49.9H24.8806V50.5H25.4806ZM25.4806 51.017L25.0276 51.4104L26.0806 52.623V51.017H25.4806ZM25.4806 55.483H26.0806V53.877L25.0276 55.0896L25.4806 55.483ZM25.4806 56H24.8806V56.6H25.4806V56ZM27.1306 56V56.6H27.7306V56H27.1306ZM27.1306 50.5H27.7306V49.9H27.1306V50.5ZM24.8806 50.5V51.017H26.0806V50.5H24.8806ZM25.9336 50.6236C25.4418 50.0572 24.7283 49.746 23.8416 49.746V50.946C24.4289 50.946 24.7935 51.1408 25.0276 51.4104L25.9336 50.6236ZM23.8416 49.746C22.0205 49.746 20.6126 51.3305 20.6126 53.25H21.8126C21.8126 51.8915 22.7807 50.946 23.8416 50.946V49.746ZM20.6126 53.25C20.6126 55.1695 22.0205 56.754 23.8416 56.754V55.554C22.7807 55.554 21.8126 54.6085 21.8126 53.25H20.6126ZM23.8416 56.754C24.7283 56.754 25.4418 56.4428 25.9336 55.8764L25.0276 55.0896C24.7935 55.3592 24.4289 55.554 23.8416 55.554V56.754ZM24.8806 55.483V56H26.0806V55.483H24.8806ZM25.4806 56.6H27.1306V55.4H25.4806V56.6ZM27.7306 56V50.5H26.5306V56H27.7306ZM27.1306 49.9H25.4806V51.1H27.1306V49.9ZM24.1716 53.992C23.9309 53.992 23.763 53.9123 23.6568 53.8061C23.5516 53.7009 23.4626 53.5254 23.4626 53.25H22.2626C22.2626 53.7996 22.4487 54.2951 22.8082 54.6546C23.1668 55.0132 23.6534 55.192 24.1716 55.192V53.992ZM23.4626 53.25C23.4626 52.9746 23.5516 52.7991 23.6568 52.6939C23.763 52.5877 23.9309 52.508 24.1716 52.508V51.308C23.6534 51.308 23.1668 51.4868 22.8082 51.8454C22.4487 52.2049 22.2626 52.7004 22.2626 53.25H23.4626ZM24.1716 52.508C24.4124 52.508 24.5803 52.5877 24.6865 52.6939C24.7917 52.7991 24.8806 52.9746 24.8806 53.25H26.0806C26.0806 52.7004 25.8946 52.2049 25.535 51.8454C25.1765 51.4868 24.6899 51.308 24.1716 51.308V52.508ZM24.8806 53.25C24.8806 53.5254 24.7917 53.7009 24.6865 53.8061C24.5803 53.9123 24.4124 53.992 24.1716 53.992V55.192C24.6899 55.192 25.1765 55.0132 25.535 54.6546C25.8946 54.2951 26.0806 53.7996 26.0806 53.25H24.8806ZM30.1911 51.479H29.5911L30.7661 51.6506L30.1911 51.479ZM30.1911 50.5H30.7911V49.9H30.1911V50.5ZM28.5411 50.5V49.9H27.9411V50.5H28.5411ZM28.5411 56H27.9411V56.6H28.5411V56ZM30.1911 56V56.6H30.7911V56H30.1911ZM31.8411 52.26L31.7456 52.8523L32.4411 52.9645V52.26H31.8411ZM31.8411 50.39H32.4411V49.79H31.8411V50.39ZM30.7911 51.479V50.5H29.5911V51.479H30.7911ZM30.1911 49.9H28.5411V51.1H30.1911V49.9ZM27.9411 50.5V56H29.1411V50.5H27.9411ZM28.5411 56.6H30.1911V55.4H28.5411V56.6ZM30.7911 56V53.514H29.5911V56H30.7911ZM30.7911 53.514C30.7911 53.1816 30.921 53.0384 31.063 52.9555C31.2431 52.8503 31.5074 52.8139 31.7456 52.8523L31.9367 51.6677C31.4928 51.5961 30.9322 51.6422 30.4578 51.9193C29.9453 52.2186 29.5911 52.7574 29.5911 53.514H30.7911ZM32.4411 52.26V50.39H31.2411V52.26H32.4411ZM31.8411 49.79C30.986 49.79 29.938 50.2295 29.6162 51.3074L30.7661 51.6506C30.8843 51.2545 31.3102 50.99 31.8411 50.99V49.79ZM36.6443 48.3V47.7H36.0443V48.3H36.6443ZM36.6443 51.017L36.1913 51.4104L37.2443 52.623V51.017H36.6443ZM36.6443 55.483H37.2443V53.877L36.1913 55.0896L36.6443 55.483ZM36.6443 56H36.0443V56.6H36.6443V56ZM38.2943 56V56.6H38.8943V56H38.2943ZM38.2943 48.3H38.8943V47.7H38.2943V48.3ZM36.0443 48.3V51.017H37.2443V48.3H36.0443ZM37.0973 50.6236C36.6055 50.0572 35.892 49.746 35.0053 49.746V50.946C35.5926 50.946 35.9571 51.1408 36.1913 51.4104L37.0973 50.6236ZM35.0053 49.746C33.1842 49.746 31.7763 51.3305 31.7763 53.25H32.9763C32.9763 51.8915 33.9444 50.946 35.0053 50.946V49.746ZM31.7763 53.25C31.7763 55.1695 33.1842 56.754 35.0053 56.754V55.554C33.9444 55.554 32.9763 54.6085 32.9763 53.25H31.7763ZM35.0053 56.754C35.892 56.754 36.6055 56.4428 37.0973 55.8764L36.1913 55.0896C35.9571 55.3592 35.5926 55.554 35.0053 55.554V56.754ZM36.0443 55.483V56H37.2443V55.483H36.0443ZM36.6443 56.6H38.2943V55.4H36.6443V56.6ZM38.8943 56V48.3H37.6943V56H38.8943ZM38.2943 47.7H36.6443V48.9H38.2943V47.7ZM35.3353 53.992C35.0945 53.992 34.9266 53.9123 34.8204 53.8061C34.7152 53.7009 34.6263 53.5254 34.6263 53.25H33.4263C33.4263 53.7996 33.6123 54.2951 33.9719 54.6546C34.3304 55.0132 34.817 55.192 35.3353 55.192V53.992ZM34.6263 53.25C34.6263 52.9746 34.7152 52.7991 34.8204 52.6939C34.9266 52.5877 35.0945 52.508 35.3353 52.508V51.308C34.817 51.308 34.3304 51.4868 33.9719 51.8454C33.6123 52.2049 33.4263 52.7004 33.4263 53.25H34.6263ZM35.3353 52.508C35.576 52.508 35.7439 52.5877 35.8502 52.6939C35.9553 52.7991 36.0443 52.9746 36.0443 53.25H37.2443C37.2443 52.7004 37.0582 52.2049 36.6987 51.8454C36.3401 51.4868 35.8535 51.308 35.3353 51.308V52.508ZM36.0443 53.25C36.0443 53.5254 35.9553 53.7009 35.8502 53.8061C35.7439 53.9123 35.576 53.992 35.3353 53.992V55.192C35.8535 55.192 36.3401 55.0132 36.6987 54.6546C37.0582 54.2951 37.2443 53.7996 37.2443 53.25H36.0443ZM42.4121 52.282L41.8838 52.5665L42.1684 53.095L42.6968 52.8102L42.4121 52.282ZM43.8201 51.523L44.1048 52.0512L44.6544 51.7549L44.3365 51.2175L43.8201 51.523ZM40.6961 54.031L41.2638 53.8368L41.0292 53.151L40.3993 53.5096L40.6961 54.031ZM39.2661 54.845L38.9693 54.3236L38.4825 54.6006L38.7255 55.1053L39.2661 54.845ZM41.8131 52.106C41.8131 52.148 41.803 52.2049 41.7709 52.2633C41.7391 52.3211 41.6978 52.3585 41.6657 52.3796C41.6112 52.4153 41.5959 52.398 41.6751 52.398V51.198C41.4683 51.198 41.222 51.2357 41.008 51.3759C40.7645 51.5354 40.6131 51.7983 40.6131 52.106H41.8131ZM41.6751 52.398C41.7387 52.398 41.7613 52.4125 41.7738 52.4214C41.7949 52.4364 41.8342 52.4743 41.8838 52.5665L42.9404 51.9975C42.836 51.8037 42.6883 51.5996 42.4702 51.4441C42.2434 51.2825 41.9745 51.198 41.6751 51.198V52.398ZM42.6968 52.8102L44.1048 52.0512L43.5354 50.9948L42.1274 51.7538L42.6968 52.8102ZM44.3365 51.2175C43.7543 50.2334 42.7531 49.746 41.6751 49.746V50.946C42.3791 50.946 42.9618 51.2506 43.3037 51.8285L44.3365 51.2175ZM41.6751 49.746C41.006 49.746 40.3295 49.9218 39.8049 50.3208C39.2623 50.7334 38.9191 51.3598 38.9191 52.15H40.1191C40.1191 51.7412 40.2819 51.4656 40.5313 51.276C40.7986 51.0727 41.2002 50.946 41.6751 50.946V49.746ZM38.9191 52.15C38.9191 52.789 39.1546 53.2805 39.5232 53.6395C39.8711 53.9785 40.3082 54.1712 40.6761 54.2984C40.8638 54.3632 41.0481 54.4156 41.2074 54.4602C41.3743 54.5068 41.5032 54.542 41.6119 54.5783C41.7278 54.6171 41.7622 54.6391 41.7599 54.6374C41.7466 54.6279 41.6251 54.5297 41.6251 54.339H42.8251C42.8251 53.997 42.6191 53.7765 42.4578 53.6612C42.3074 53.5537 42.1305 53.4865 41.9927 53.4404C41.8476 53.3918 41.6806 53.3464 41.5304 53.3044C41.3726 53.2603 41.2186 53.2162 41.068 53.1641C40.7595 53.0575 40.5201 52.9354 40.3606 52.78C40.2218 52.6448 40.1191 52.4625 40.1191 52.15H38.9191ZM41.6251 54.339C41.6251 54.3012 41.6346 54.2428 41.6702 54.182C41.7053 54.1219 41.7489 54.0885 41.7743 54.0737C41.7965 54.0608 41.8015 54.0637 41.7738 54.0692C41.7471 54.0745 41.7011 54.08 41.6311 54.08V55.28C41.8724 55.28 42.1459 55.2462 42.3789 55.1103C42.6556 54.9488 42.8251 54.6699 42.8251 54.339H41.6251ZM41.6311 54.08C41.4859 54.08 41.4162 54.0464 41.3824 54.0225C41.3492 53.999 41.3029 53.951 41.2638 53.8368L40.1284 54.2252C40.2323 54.529 40.4115 54.8055 40.689 55.002C40.966 55.1981 41.2923 55.28 41.6311 55.28V54.08ZM40.3993 53.5096L38.9693 54.3236L39.5629 55.3664L40.9929 54.5524L40.3993 53.5096ZM38.7255 55.1053C39.2802 56.2574 40.3665 56.754 41.6311 56.754V55.554C40.6957 55.554 40.11 55.2146 39.8067 54.5847L38.7255 55.1053ZM41.6311 56.754C42.3037 56.754 43.0076 56.6032 43.5619 56.2199C44.1425 55.8184 44.5191 55.1854 44.5191 54.35H43.3191C43.3191 54.7796 43.1457 55.0486 42.8793 55.2329C42.5866 55.4353 42.1464 55.554 41.6311 55.554V56.754ZM44.5191 54.35C44.5191 53.6907 44.2928 53.1815 43.9231 52.8073C43.5725 52.4525 43.1303 52.2571 42.7579 52.1315C42.5684 52.0675 42.3827 52.0172 42.2226 51.9749C42.0543 51.9304 41.9264 51.8978 41.818 51.8633C41.7022 51.8264 41.6712 51.8058 41.6768 51.8098C41.6984 51.8251 41.8131 51.9239 41.8131 52.106H40.6131C40.6131 52.4448 40.8124 52.6677 40.9819 52.7882C41.1356 52.8973 41.3159 52.9628 41.4539 53.0067C41.5991 53.0529 41.7672 53.0958 41.916 53.1351C42.073 53.1766 42.2255 53.2183 42.3743 53.2685C42.6783 53.3711 42.9127 53.492 43.0695 53.6507C43.2072 53.7901 43.3191 53.9918 43.3191 54.35H44.5191Z" fill="#8A8A8A"/>
</svg>
