<svg width="64" height="50" viewBox="0 0 64 50" fill="none" xmlns="http://www.w3.org/2000/svg">
<path d="M44.6089 43.4661L7.95673 49.0385L0.480774 11.2631L3.71198 10.7827L37.1589 5.76929L44.0717 40.7323L44.6089 43.4661Z" fill="#FF784B" stroke="#0D0D0D" stroke-width="0.3" stroke-linecap="round" stroke-linejoin="round"/>
<path fill-rule="evenodd" clip-rule="evenodd" d="M44.2047 41.4089L9.53906 46.7745L2.4068 10.9767L3.71201 10.7826L37.1589 5.76917L44.0717 40.7322L44.2047 41.4089Z" fill="#0D0D0D"/>
<path d="M44.2047 41.4089L44.2268 41.5514C44.2656 41.5454 44.3003 41.5238 44.3228 41.4916C44.3453 41.4595 44.3538 41.4195 44.3463 41.3811L44.2047 41.4089ZM9.53906 46.7744L9.39761 46.8026C9.41271 46.8784 9.48479 46.9288 9.56112 46.917L9.53906 46.7744ZM2.40681 10.9766L2.38559 10.8339C2.34655 10.8397 2.31158 10.8613 2.28886 10.8936C2.26613 10.9259 2.25764 10.9661 2.26535 11.0048L2.40681 10.9766ZM3.71202 10.7825L3.73323 10.9252H3.7334L3.71202 10.7825ZM37.1589 5.76912L37.3004 5.74114C37.2854 5.66556 37.2137 5.61507 37.1375 5.62649L37.1589 5.76912ZM44.0718 40.7321L44.2133 40.7043V40.7041L44.0718 40.7321ZM44.1826 41.2664L9.51701 46.6319L9.56112 46.917L44.2268 41.5514L44.1826 41.2664ZM9.68051 46.7463L2.54826 10.9484L2.26535 11.0048L9.39761 46.8026L9.68051 46.7463ZM2.42802 11.1192L3.73323 10.9252L3.6908 10.6399L2.38559 10.8339L2.42802 11.1192ZM3.7334 10.9252L37.1803 5.91176L37.1375 5.62649L3.69063 10.6399L3.7334 10.9252ZM37.0174 5.79709L43.9303 40.7601L44.2133 40.7041L37.3004 5.74114L37.0174 5.79709ZM43.9302 40.7599L44.0632 41.4366L44.3463 41.3811L44.2133 40.7043L43.9302 40.7599Z" fill="#0D0D0D"/>
<path d="M48.2061 39.4883L10.5171 45.1848L2.82074 6.57762L40.5365 0.961548L48.2061 39.4883Z" fill="#FFDF0D" stroke="#0D0D0D" stroke-width="0.3" stroke-linejoin="round"/>
<mask id="mask0_55_1775" style="mask-type:alpha" maskUnits="userSpaceOnUse" x="2" y="0" width="47" height="46">
<path d="M48.2061 39.3925L10.5171 45.089L2.82074 6.48179L40.5365 0.865723L48.2061 39.3925Z" fill="#FFDF0D"/>
</mask>
<g mask="url(#mask0_55_1775)">
<path d="M26.4423 42.6923L44.7115 12.3911L40.8653 2.40381L13.9423 45.0961L26.4423 42.6923Z" fill="white"/>
<path d="M17.6599 27.2665L12.4578 28.0432L11.4689 23.1057L16.6801 22.3201L17.6599 27.2665Z" fill="white" stroke="#0D0D0D" stroke-width="0.3" stroke-linecap="round" stroke-linejoin="round"/>
<path d="M19.6323 37.158L14.4301 37.9258L13.4503 32.9883L18.6524 32.2115L19.6323 37.158Z" fill="white" stroke="#0D0D0D" stroke-width="0.3" stroke-linecap="round" stroke-linejoin="round"/>
<path d="M41.7768 33.8568L22.0548 36.7855L21.075 31.848L40.7879 28.9193L41.7768 33.8568Z" stroke="#0D0D0D" stroke-width="0.3" stroke-linejoin="round"/>
<path d="M39.8067 23.964L20.0848 26.9015L19.1049 21.9729L38.818 19.0354L39.8067 23.964Z" stroke="#0D0D0D" stroke-width="0.3" stroke-linejoin="round"/>
<path d="M37.8386 14.0956L18.1166 17.0241L17.1368 12.0866L36.8498 9.14026L37.8386 14.0956Z" stroke="#0D0D0D" stroke-width="0.3" stroke-linejoin="round"/>
<path d="M15.6936 17.3905L10.4914 18.1583L9.50269 13.2208L14.7137 12.453L15.6936 17.3905Z" fill="white" stroke="#0D0D0D" stroke-width="0.3" stroke-linecap="round" stroke-linejoin="round"/>
</g>
<path fill-rule="evenodd" clip-rule="evenodd" d="M43.7057 9.12329C41.4994 10.1049 39.6247 11.7073 38.3091 13.736C36.9935 15.7645 36.2936 18.1323 36.2943 20.5518C36.3115 23.8126 37.592 26.9391 39.8657 29.2714C42.1394 31.6037 45.2284 32.9592 48.4803 33.0518L43.7057 9.12329Z" fill="#0D0D0D" stroke="#0D0D0D" stroke-width="0.3" stroke-linecap="round" stroke-linejoin="round"/>
<path fill-rule="evenodd" clip-rule="evenodd" d="M50.422 5.99832C53.7392 5.99354 56.9231 7.30609 59.2771 9.64874C61.631 11.9914 62.9631 15.1735 62.982 18.4984C62.9749 21.8317 61.6482 25.026 59.2932 27.3798C56.9383 29.7335 53.7476 31.0542 50.422 31.0518C47.0948 31.0565 43.9018 29.737 41.5449 27.383C39.188 25.0289 37.8601 21.8333 37.853 18.4984C37.8719 15.1719 39.2052 11.9885 41.5611 9.64557C43.917 7.30267 47.1032 5.99118 50.422 5.99832Z" fill="white" stroke="#0D0D0D" stroke-width="0.3" stroke-linecap="round" stroke-linejoin="round"/>
<path d="M50.4197 9.00687C51.6714 9.00453 52.9113 9.24925 54.0686 9.72723C55.226 10.2051 56.2779 10.9068 57.1646 11.7923C58.0513 12.6778 58.7554 13.7297 59.2365 14.8879C59.7177 16.0462 59.9665 17.2879 59.9689 18.5425C59.9677 19.7979 59.7198 21.0407 59.2391 22.1999C58.7585 23.3592 58.0546 24.412 57.1678 25.2985C56.281 26.1849 55.2285 26.8874 54.0706 27.3659C52.9127 27.8444 51.6721 28.0895 50.4197 28.0872C49.1665 28.0908 47.925 27.8466 46.7661 27.3686C45.6072 26.8906 44.5536 26.1882 43.6659 25.3017C42.7781 24.4151 42.0735 23.3618 41.5922 22.202C41.1111 21.0422 40.8628 19.7986 40.8616 18.5425C40.8639 17.2871 41.1132 16.0446 41.5948 14.8859C42.0765 13.727 42.7813 12.6748 43.669 11.7892C44.5567 10.9036 45.6098 10.2021 46.7682 9.72473C47.9265 9.24727 49.1673 9.00334 50.4197 9.00687Z" fill="#9772FF" stroke="#0D0D0D" stroke-width="0.3" stroke-linecap="round" stroke-linejoin="round"/>
<path fill-rule="evenodd" clip-rule="evenodd" d="M49.3126 20.7124H51.5128V13.0784H49.3126V20.7124Z" fill="white" stroke="#0D0D0D" stroke-width="0.3" stroke-linecap="round" stroke-linejoin="round"/>
<path fill-rule="evenodd" clip-rule="evenodd" d="M49.2957 24.0164H51.5316V21.811H49.2957V24.0164Z" fill="white" stroke="#0D0D0D" stroke-width="0.3" stroke-linecap="round" stroke-linejoin="round"/>
</svg>
