<svg width="202" height="201" viewBox="0 0 202 201" fill="none" xmlns="http://www.w3.org/2000/svg">
<g clip-path="url(#clip0_27_1036)">
<path d="M101 200.2C156.228 200.2 201 155.428 201 100.2C201 44.9713 156.228 0.199707 101 0.199707C45.7715 0.199707 1 44.9713 1 100.2C1 155.428 45.7715 200.2 101 200.2Z" fill="#0D0D0D" stroke="#6B40E2" stroke-width="0.4" stroke-miterlimit="10"/>
<path d="M101 179C144.63 179 180 143.63 180 100C180 56.3695 144.63 21 101 21C57.3695 21 22 56.3695 22 100C22 143.63 57.3695 179 101 179Z" fill="#0D0D0D" stroke="#6B40E2" stroke-width="0.4" stroke-miterlimit="10"/>
<path d="M185.64 138.53C185.69 140.239 185.077 141.902 183.93 143.17C183.323 143.807 182.592 144.313 181.782 144.657C180.972 145.001 180.1 145.176 179.22 145.17H37.2202C36.3248 145.17 35.4381 144.993 34.611 144.65C33.7839 144.307 33.0327 143.804 32.4002 143.17C31.196 141.935 30.4847 140.303 30.4002 138.58C30.3505 137.417 30.6277 136.263 31.2002 135.25L98.0402 11.9001C98.5843 10.884 99.3972 10.037 100.39 9.45148C101.383 8.86599 102.518 8.56458 103.67 8.58016C104.844 8.5792 105.999 8.88273 107.021 9.46111C108.042 10.0395 108.897 10.873 109.5 11.8801L170.36 111.8L184.63 135.2C184.97 135.762 185.233 136.367 185.41 137C185.543 137.5 185.62 138.013 185.64 138.53Z" fill="#FFDB7D" stroke="#020203" stroke-width="0.4" stroke-linecap="round" stroke-linejoin="round"/>
<g style="mix-blend-mode:screen">
<g style="mix-blend-mode:screen">
<path d="M157.32 90.37L102.5 145.2H37.2304C35.7384 145.191 34.2907 144.692 33.1104 143.78L130.5 46.3799L157.32 90.37Z" fill="white"/>
</g>
</g>
<path d="M37.23 145.2C36.3358 145.201 35.4503 145.025 34.6246 144.682C33.799 144.339 33.0496 143.835 32.42 143.2C31.208 141.966 30.4955 140.328 30.42 138.6C30.3744 137.443 30.644 136.296 31.2 135.28L98.04 11.9298C98.581 10.9104 99.393 10.0601 100.386 9.47246C101.38 8.8849 102.516 8.58292 103.67 8.59979C104.843 8.5986 105.996 8.90211 107.016 9.48061C108.036 10.0592 108.889 10.8928 109.49 11.8998L184.64 135.2C185.249 136.197 185.593 137.333 185.64 138.5C185.692 140.208 185.075 141.87 183.92 143.13C183.317 143.77 182.589 144.278 181.78 144.622C180.971 144.967 180.099 145.14 179.22 145.13H37.22L37.23 145.2Z" stroke="#020203" stroke-width="0.4" stroke-linecap="round" stroke-linejoin="round"/>
<path d="M183.13 143.87L171.29 154.81C170.063 155.928 168.46 156.543 166.8 156.53H25.25C24.3202 156.533 23.3992 156.35 22.5407 155.993C21.6822 155.636 20.9035 155.111 20.25 154.45L32.41 143.2C33.0405 143.837 33.7914 144.341 34.6189 144.685C35.4464 145.028 36.3341 145.203 37.23 145.2H179.23C180.64 145.193 182.009 144.726 183.13 143.87Z" fill="#FFCB45" stroke="#020203" stroke-width="0.4" stroke-linecap="round" stroke-linejoin="round"/>
<path d="M31.2102 135.26C30.6412 136.275 30.3643 137.427 30.4102 138.59C30.501 140.311 31.2114 141.942 32.4102 143.18L20.2702 154.45C19.0101 153.167 18.2662 151.466 18.1802 149.67C18.1365 148.481 18.4164 147.302 18.9902 146.26L85.6202 23.2598C85.9617 22.6258 86.4041 22.0516 86.9302 21.5599L99.0702 10.3599C98.3902 11.3599 97.7502 12.4299 97.1702 13.5199L31.2102 135.26Z" fill="#FFCB45" stroke="#020203" stroke-width="0.4" stroke-linecap="round" stroke-linejoin="round"/>
<path d="M113.74 103.64L112.13 55.7202L112.04 55.5301L111.85 55.4502H98.6104L98.4304 55.5301L98.3604 55.7202L99.9704 103.64L100.05 103.83L100.24 103.91H113.48L113.66 103.83L113.74 103.64Z" fill="#0D0D0D" stroke="#0D0D0D" stroke-width="0.4" stroke-linecap="round" stroke-linejoin="round"/>
<path d="M114.34 122.13L113.86 107.99L113.79 107.83L113.61 107.76H100.37L100.21 107.83L100.15 107.99L100.62 122.13L100.7 122.3L100.86 122.37H114.1L114.27 122.3L114.34 122.13Z" fill="#0D0D0D" stroke="#0D0D0D" stroke-width="0.4" stroke-linecap="round" stroke-linejoin="round"/>
<path d="M160.626 56.074C160.547 54.0701 159.715 52.1697 158.297 50.7516C156.879 49.3335 154.978 48.5021 152.975 48.4229L143 48.0049L153.023 47.616C155.018 47.5447 156.913 46.7249 158.331 45.3197C159.748 43.9145 160.585 42.0271 160.674 40.0329L161.131 30L161.442 39.9163C161.505 41.9312 162.329 43.8473 163.749 45.2782C165.169 46.709 167.079 47.5479 169.093 47.6257L179 48.0049L169.035 48.384C167.03 48.4609 165.129 49.2917 163.71 50.7102C162.292 52.1288 161.461 54.0305 161.384 56.0351L161.005 66L160.626 56.074Z" fill="white"/>
<path d="M83.2102 182.122C83.1584 180.73 82.5841 179.409 81.6023 178.424C80.6204 177.438 79.3033 176.86 77.9145 176.805L71 176.545L77.9944 176.275C79.375 176.221 80.6852 175.65 81.6658 174.675C82.6465 173.7 83.2261 172.391 83.2902 171.008L83.6099 164L83.8197 170.888C83.8643 172.287 84.4367 173.617 85.4214 174.609C86.4062 175.601 87.7299 176.182 89.1255 176.235L96 176.505L89.0855 176.765C87.6965 176.822 86.3796 177.4 85.3965 178.385C84.4135 179.37 83.8363 180.69 83.7798 182.082L83.52 189L83.2102 182.122Z" fill="white"/>
<path d="M22.0479 58.3979L27.4814 69.2788L38.8641 70.3808L33.4306 59.5L22.0479 58.3979Z" fill="#3CBF77" stroke="#0D0D0D" stroke-width="0.4" stroke-linecap="round" stroke-linejoin="round"/>
<path d="M27.9964 48.6294L39.3792 49.7315L33.4306 59.5002L22.0479 58.3981L27.9964 48.6294Z" fill="white" stroke="#0D0D0D" stroke-width="0.4" stroke-linecap="round" stroke-linejoin="round"/>
<path d="M38.8642 70.3809L44.8134 60.6022L39.3793 49.7314L33.4307 59.5001L38.8642 70.3809Z" fill="#4FE3A3" stroke="#0D0D0D" stroke-width="0.4" stroke-linecap="round" stroke-linejoin="round"/>
<path d="M185.41 137.03C184.732 137.243 184.04 137.411 183.34 137.53C182.514 137.671 181.677 137.741 180.84 137.74C177.832 137.743 174.891 136.847 172.397 135.167C169.902 133.486 167.967 131.098 166.84 128.309C165.713 125.52 165.446 122.458 166.074 119.516C166.701 116.574 168.193 113.887 170.36 111.8L184.63 135.2C184.972 135.771 185.235 136.387 185.41 137.03Z" fill="#0D0D0D" stroke="#0D0D0D" stroke-width="0.4" stroke-linecap="round" stroke-linejoin="round"/>
<path d="M167.19 116.6C167.19 121.083 168.97 125.383 172.139 128.554C175.308 131.725 179.607 133.507 184.09 133.51C185.032 133.512 185.972 133.431 186.9 133.27C190.431 132.676 193.683 130.976 196.187 128.415C198.69 125.854 200.316 122.564 200.83 119.02C200.9 118.51 200.95 118.02 200.98 117.46C200.98 117.17 200.98 116.88 200.98 116.6C200.985 112.86 199.749 109.223 197.466 106.261C195.183 103.298 191.981 101.177 188.363 100.229C184.745 99.2805 180.915 99.5596 177.472 101.022C174.029 102.485 171.169 105.048 169.34 108.31C167.915 110.84 167.174 113.697 167.19 116.6Z" fill="#3CBF77" stroke="#0D0D0D" stroke-width="0.4" stroke-linecap="round" stroke-linejoin="round"/>
<path d="M169.18 110.72C169.177 114.46 170.414 118.095 172.698 121.057C174.981 124.019 178.182 126.141 181.8 127.089C185.418 128.038 189.248 127.761 192.691 126.301C196.135 124.841 198.997 122.28 200.83 119.02C200.942 118.218 200.999 117.41 201 116.6C201.005 112.86 199.769 109.223 197.486 106.261C195.203 103.298 192.001 101.177 188.383 100.229C184.765 99.2805 180.935 99.5596 177.492 101.022C174.049 102.485 171.189 105.048 169.36 108.31C169.239 109.108 169.178 109.913 169.18 110.72Z" fill="#4FE2A3" stroke="#0D0D0D" stroke-width="0.4" stroke-linecap="round" stroke-linejoin="round"/>
<path d="M193.31 107.699C193.922 106.431 192.504 104.478 190.142 103.336C187.78 102.195 185.369 102.298 184.756 103.566C184.143 104.834 185.561 106.787 187.923 107.928C190.285 109.07 192.697 108.967 193.31 107.699Z" fill="white" stroke="#0D0D0D" stroke-width="0.4" stroke-linecap="round" stroke-linejoin="round"/>
</g>
<defs>
<clipPath id="clip0_27_1036">
<rect width="202" height="201" fill="white"/>
</clipPath>
</defs>
</svg>
