<svg width="360" height="548" viewBox="0 0 360 548" fill="none" xmlns="http://www.w3.org/2000/svg">
<g filter="url(#filter0_dddddd_37_277)">
<path d="M237.314 149.031L231.514 143.204C229.409 141.09 226.943 141.107 224.815 143.244L217.61 150.482C215.447 152.654 215.459 155.104 217.563 157.217L223.364 163.044C225.502 165.192 227.906 165.168 230.068 162.996L237.274 155.759C239.401 153.622 239.452 151.179 237.314 149.031Z" fill="url(#paint0_linear_37_277)"/>
<g opacity="0.5" filter="url(#filter1_f_37_277)">
<path d="M234.191 150.325L230.225 146.341C228.786 144.895 227.099 144.907 225.645 146.368L220.717 151.317C219.239 152.802 219.247 154.477 220.685 155.923L224.652 159.907C226.114 161.376 227.758 161.36 229.236 159.875L234.164 154.925C235.618 153.464 235.653 151.793 234.191 150.325Z" fill="#F86652"/>
</g>
<g filter="url(#filter2_b_37_277)">
<mask id="path-3-outside-1_37_277" maskUnits="userSpaceOnUse" x="203.516" y="135.497" width="36.7487" height="35.6506" fill="black">
<rect fill="white" x="203.516" y="135.497" width="36.7487" height="35.6506"/>
<path fill-rule="evenodd" clip-rule="evenodd" d="M231.28 150.067C230.721 149.329 229.99 148.728 229.142 148.323L226.268 146.664C226.08 146.343 225.951 145.986 225.891 145.609L225.686 143.532C225.551 142.619 225.002 141.823 224.199 141.376L221.938 140.071C217.879 137.728 214.994 139.266 212.635 143.353L210.084 147.77C210.084 147.771 210.084 147.771 210.084 147.772L208.398 150.691C208.146 151.128 207.929 151.584 207.75 152.055C207.42 152.879 207.257 153.761 207.272 154.648C207.268 155.069 207.318 155.49 207.419 155.898C207.961 157.64 209.179 159.087 210.798 159.914L218.738 164.498C220.261 165.486 222.12 165.816 223.896 165.412C224.304 165.297 224.695 165.131 225.061 164.918C225.839 164.489 226.527 163.911 227.086 163.218C227.397 162.822 227.68 162.405 227.933 161.97L229.227 159.73C230.658 160.377 231.626 160.646 231.816 160.317L231.597 160.191C233.832 156.362 234.608 152.492 231.28 150.067Z"/>
</mask>
<path fill-rule="evenodd" clip-rule="evenodd" d="M231.28 150.067C230.721 149.329 229.99 148.728 229.142 148.323L226.268 146.664C226.08 146.343 225.951 145.986 225.891 145.609L225.686 143.532C225.551 142.619 225.002 141.823 224.199 141.376L221.938 140.071C217.879 137.728 214.994 139.266 212.635 143.353L210.084 147.77C210.084 147.771 210.084 147.771 210.084 147.772L208.398 150.691C208.146 151.128 207.929 151.584 207.75 152.055C207.42 152.879 207.257 153.761 207.272 154.648C207.268 155.069 207.318 155.49 207.419 155.898C207.961 157.64 209.179 159.087 210.798 159.914L218.738 164.498C220.261 165.486 222.12 165.816 223.896 165.412C224.304 165.297 224.695 165.131 225.061 164.918C225.839 164.489 226.527 163.911 227.086 163.218C227.397 162.822 227.68 162.405 227.933 161.97L229.227 159.73C230.658 160.377 231.626 160.646 231.816 160.317L231.597 160.191C233.832 156.362 234.608 152.492 231.28 150.067Z" fill="#FFAC95" fill-opacity="0.4"/>
<path d="M231.28 150.067L230.483 150.671C230.542 150.749 230.612 150.818 230.691 150.876L231.28 150.067ZM229.142 148.323L228.642 149.189C228.664 149.202 228.687 149.214 228.71 149.225L229.142 148.323ZM226.268 146.664L225.404 147.168C225.492 147.318 225.617 147.443 225.768 147.53L226.268 146.664ZM225.891 145.609L224.895 145.708C224.897 145.728 224.9 145.748 224.903 145.768L225.891 145.609ZM225.686 143.532L226.681 143.434C226.679 143.418 226.677 143.402 226.675 143.386L225.686 143.532ZM224.199 141.376L223.699 142.242C223.703 142.245 223.708 142.248 223.712 142.25L224.199 141.376ZM212.635 143.353L211.769 142.853L212.635 143.353ZM210.084 147.77L210.945 148.279L210.95 148.27L210.084 147.77ZM210.084 147.772L210.95 148.272C210.964 148.247 210.978 148.221 210.99 148.194L210.084 147.772ZM208.398 150.691L209.264 151.192L209.264 151.191L208.398 150.691ZM207.75 152.055L208.678 152.426C208.68 152.421 208.683 152.416 208.685 152.41L207.75 152.055ZM207.272 154.648L208.272 154.656C208.272 154.648 208.272 154.639 208.272 154.631L207.272 154.648ZM207.419 155.898L206.448 156.138C206.452 156.157 206.458 156.177 206.464 156.196L207.419 155.898ZM210.798 159.914L211.298 159.048C211.283 159.039 211.268 159.031 211.253 159.023L210.798 159.914ZM218.738 164.498L219.282 163.659C219.267 163.649 219.253 163.64 219.238 163.632L218.738 164.498ZM223.896 165.412L224.118 166.387C224.135 166.383 224.151 166.379 224.168 166.374L223.896 165.412ZM225.061 164.918L224.578 164.043C224.572 164.047 224.565 164.05 224.559 164.054L225.061 164.918ZM227.086 163.218L227.864 163.846L227.871 163.837L227.086 163.218ZM227.933 161.97L228.798 162.472L228.8 162.47L227.933 161.97ZM229.227 159.73L229.638 158.819C229.17 158.607 228.617 158.785 228.361 159.23L229.227 159.73ZM231.816 160.317L232.682 160.817C232.958 160.339 232.794 159.727 232.316 159.451L231.816 160.317ZM231.597 160.191L230.734 159.687C230.6 159.917 230.563 160.19 230.631 160.447C230.699 160.705 230.867 160.924 231.097 161.057L231.597 160.191ZM232.077 149.464C231.422 148.599 230.567 147.896 229.573 147.421L228.71 149.225C229.413 149.561 230.019 150.059 230.483 150.671L232.077 149.464ZM229.642 147.457L226.768 145.798L225.768 147.53L228.642 149.189L229.642 147.457ZM227.131 146.16C227.006 145.944 226.919 145.705 226.878 145.451L224.903 145.768C224.983 146.268 225.155 146.741 225.404 147.168L227.131 146.16ZM226.886 145.511L226.681 143.434L224.69 143.63L224.895 145.708L226.886 145.511ZM226.675 143.386C226.495 142.167 225.761 141.101 224.685 140.503L223.712 142.25C224.242 142.545 224.607 143.072 224.696 143.678L226.675 143.386ZM224.699 140.51L222.438 139.205L221.438 140.937L223.699 142.242L224.699 140.51ZM222.438 139.205C220.232 137.931 218.171 137.624 216.281 138.371C214.449 139.096 212.993 140.732 211.769 142.853L213.501 143.853C214.636 141.887 215.802 140.711 217.017 140.231C218.174 139.773 219.586 139.868 221.438 140.937L222.438 139.205ZM211.769 142.853L209.218 147.27L210.95 148.27L213.501 143.853L211.769 142.853ZM209.224 147.261C209.206 147.29 209.191 147.32 209.177 147.35L210.99 148.194C210.977 148.223 210.962 148.251 210.945 148.279L209.224 147.261ZM209.217 147.272L207.532 150.191L209.264 151.191L210.95 148.272L209.217 147.272ZM207.532 150.191C207.253 150.674 207.014 151.178 206.815 151.699L208.685 152.41C208.845 151.989 209.038 151.582 209.264 151.192L207.532 150.191ZM206.822 151.683C206.442 152.631 206.255 153.645 206.272 154.664L208.272 154.631C208.259 153.877 208.397 153.128 208.678 152.426L206.822 151.683ZM206.272 154.639C206.268 155.144 206.327 155.648 206.448 156.138L208.389 155.659C208.309 155.331 208.269 154.994 208.272 154.656L206.272 154.639ZM206.464 156.196C207.086 158.194 208.483 159.855 210.344 160.805L211.253 159.023C209.874 158.319 208.836 157.087 208.373 155.601L206.464 156.196ZM210.298 160.78L218.238 165.364L219.238 163.632L211.298 159.048L210.298 160.78ZM218.193 165.337C219.944 166.472 222.079 166.85 224.118 166.387L223.675 164.437C222.161 164.781 220.578 164.5 219.282 163.659L218.193 165.337ZM224.168 166.374C224.656 166.237 225.125 166.038 225.564 165.783L224.559 164.054C224.265 164.225 223.951 164.357 223.625 164.449L224.168 166.374ZM225.545 165.794C226.437 165.301 227.224 164.639 227.864 163.846L226.307 162.591C225.83 163.183 225.242 163.676 224.578 164.043L225.545 165.794ZM227.871 163.837C228.212 163.404 228.521 162.948 228.798 162.472L227.069 161.468C226.839 161.862 226.582 162.241 226.3 162.599L227.871 163.837ZM228.8 162.47L230.093 160.23L228.361 159.23L227.067 161.47L228.8 162.47ZM228.815 160.642C229.546 160.972 230.215 161.232 230.753 161.362C231.015 161.425 231.317 161.475 231.61 161.452C231.89 161.43 232.393 161.317 232.682 160.817L230.95 159.817C231.04 159.661 231.167 159.564 231.275 159.512C231.372 159.465 231.443 159.459 231.454 159.458C231.468 159.457 231.403 159.461 231.22 159.417C230.869 159.333 230.338 159.136 229.638 158.819L228.815 160.642ZM232.316 159.451L232.097 159.325L231.097 161.057L231.316 161.183L232.316 159.451ZM232.461 160.695C233.614 158.72 234.459 156.625 234.524 154.635C234.592 152.576 233.816 150.678 231.869 149.259L230.691 150.876C232.071 151.881 232.572 153.132 232.525 154.57C232.476 156.078 231.816 157.833 230.734 159.687L232.461 160.695Z" fill="url(#paint1_linear_37_277)" mask="url(#path-3-outside-1_37_277)"/>
</g>
<g filter="url(#filter3_bd_37_277)">
<path d="M222.214 160.728L212.381 155.051C211.935 154.793 211.783 154.22 212.043 153.771C212.302 153.322 212.874 153.166 213.32 153.424L223.231 159.146C223.47 159.288 223.628 159.535 223.657 159.812C223.697 160.029 223.651 160.253 223.528 160.437C223.396 160.651 223.184 160.803 222.941 160.859C222.697 160.916 222.441 160.872 222.231 160.738L222.214 160.728Z" fill="url(#paint2_linear_37_277)"/>
<path d="M223.459 159.833L223.459 159.841L223.461 159.848C223.491 160.014 223.456 160.185 223.362 160.326L223.362 160.326L223.358 160.332C223.254 160.5 223.087 160.62 222.896 160.664C222.704 160.709 222.503 160.674 222.339 160.569L222.339 160.569L222.331 160.565L222.314 160.555L212.481 154.878C212.132 154.676 212.011 154.226 212.216 153.871C212.421 153.516 212.871 153.396 213.22 153.597L223.13 159.319C223.314 159.428 223.436 159.618 223.459 159.833Z" stroke="url(#paint3_linear_37_277)" stroke-width="0.4"/>
</g>
</g>
<path fill-rule="evenodd" clip-rule="evenodd" d="M261.805 223.046C260.691 223.78 257.837 226.62 256.43 228.079L302.082 270.227C303.426 268.705 306.051 265.611 306.673 264.47C310.365 258.056 309.39 250.815 304.07 244.959L281.461 224.085C275.173 219.178 267.949 218.806 261.805 223.046ZM238.588 247.388L256.421 228.072L302.09 270.236L284.114 289.706C276.761 297.671 267.227 297.939 259.206 290.534L239.58 272.414C231.634 265.078 231.185 255.405 238.588 247.388Z" fill="url(#paint4_linear_37_277)"/>
<g opacity="0.5" filter="url(#filter4_f_37_277)">
<path d="M290.379 245.599L277.631 234.145C273.007 229.991 267.672 230.514 263.143 235.555L247.804 252.627C243.201 257.75 243.31 263.045 247.934 267.199L260.682 278.653C265.38 282.874 270.58 282.349 275.183 277.226L290.522 260.153C295.051 255.113 295.078 249.82 290.379 245.599Z" fill="#EB6F0A"/>
</g>
<g filter="url(#filter5_b_37_277)">
<mask id="path-9-outside-2_37_277" maskUnits="userSpaceOnUse" x="237.755" y="233.41" width="83.6239" height="84.2225" fill="black">
<rect fill="white" x="237.755" y="233.41" width="83.6239" height="84.2225"/>
<path fill-rule="evenodd" clip-rule="evenodd" d="M257.106 246.693C256.362 247.801 254.829 251.524 254.095 253.414L312.497 274.622C313.148 272.698 314.372 268.829 314.504 267.536C315.428 260.194 311.727 253.894 304.557 250.552L275.633 240.048C267.937 237.955 261.13 240.407 257.106 246.693ZM254.084 253.411L245.111 278.121C241.386 288.378 245.542 297.124 255.707 300.815L280.814 309.933C291.076 313.659 299.764 309.723 303.463 299.535L312.508 274.627L254.084 253.411ZM262.292 272.387C261.815 273.9 262.608 275.514 264.107 275.982C265.573 276.444 267.175 275.63 267.654 274.11C268.151 272.641 267.379 271.071 265.936 270.547C264.436 270.08 262.834 270.894 262.292 272.387ZM275.471 277.173C274.994 278.686 275.787 280.3 277.287 280.768C278.752 281.23 280.354 280.416 280.834 278.896C281.331 277.427 280.558 275.857 279.115 275.333C277.615 274.866 276.013 275.68 275.471 277.173ZM284.373 293.738C283.83 295.231 284.569 296.895 286.032 297.463C287.539 298.01 289.206 297.219 289.76 295.694C290.313 294.172 289.542 292.496 288.035 291.948L288.003 291.937C286.516 291.434 284.883 292.233 284.373 293.738ZM273.008 292.55C271.508 292.082 270.715 290.468 271.193 288.952C271.736 287.459 273.337 286.648 274.837 287.115C276.28 287.639 277.052 289.209 276.554 290.682C276.076 292.198 274.474 293.012 273.008 292.55ZM259.797 287.753C258.297 287.285 257.504 285.671 257.982 284.154C258.524 282.661 260.125 281.85 261.625 282.318C263.068 282.842 263.841 284.412 263.343 285.884C262.864 287.401 261.262 288.215 259.797 287.753ZM292.313 280.166C290.826 279.663 289.236 280.445 288.694 281.938L288.682 281.97C288.173 283.472 288.979 285.05 290.466 285.553C291.919 286.048 293.522 285.234 294.032 283.729C294.487 282.275 293.756 280.69 292.313 280.166Z"/>
</mask>
<path fill-rule="evenodd" clip-rule="evenodd" d="M257.106 246.693C256.362 247.801 254.829 251.524 254.095 253.414L312.497 274.622C313.148 272.698 314.372 268.829 314.504 267.536C315.428 260.194 311.727 253.894 304.557 250.552L275.633 240.048C267.937 237.955 261.13 240.407 257.106 246.693ZM254.084 253.411L245.111 278.121C241.386 288.378 245.542 297.124 255.707 300.815L280.814 309.933C291.076 313.659 299.764 309.723 303.463 299.535L312.508 274.627L254.084 253.411ZM262.292 272.387C261.815 273.9 262.608 275.514 264.107 275.982C265.573 276.444 267.175 275.63 267.654 274.11C268.151 272.641 267.379 271.071 265.936 270.547C264.436 270.08 262.834 270.894 262.292 272.387ZM275.471 277.173C274.994 278.686 275.787 280.3 277.287 280.768C278.752 281.23 280.354 280.416 280.834 278.896C281.331 277.427 280.558 275.857 279.115 275.333C277.615 274.866 276.013 275.68 275.471 277.173ZM284.373 293.738C283.83 295.231 284.569 296.895 286.032 297.463C287.539 298.01 289.206 297.219 289.76 295.694C290.313 294.172 289.542 292.496 288.035 291.948L288.003 291.937C286.516 291.434 284.883 292.233 284.373 293.738ZM273.008 292.55C271.508 292.082 270.715 290.468 271.193 288.952C271.736 287.459 273.337 286.648 274.837 287.115C276.28 287.639 277.052 289.209 276.554 290.682C276.076 292.198 274.474 293.012 273.008 292.55ZM259.797 287.753C258.297 287.285 257.504 285.671 257.982 284.154C258.524 282.661 260.125 281.85 261.625 282.318C263.068 282.842 263.841 284.412 263.343 285.884C262.864 287.401 261.262 288.215 259.797 287.753ZM292.313 280.166C290.826 279.663 289.236 280.445 288.694 281.938L288.682 281.97C288.173 283.472 288.979 285.05 290.466 285.553C291.919 286.048 293.522 285.234 294.032 283.729C294.487 282.275 293.756 280.69 292.313 280.166Z" fill="#FFCBB9" fill-opacity="0.35"/>
<path d="M254.095 253.414L253.163 253.052C253.065 253.303 253.073 253.583 253.185 253.828C253.296 254.072 253.501 254.262 253.754 254.354L254.095 253.414ZM257.106 246.693L257.936 247.25C257.94 247.244 257.944 247.238 257.948 247.232L257.106 246.693ZM312.497 274.622L312.156 275.562C312.409 275.654 312.688 275.64 312.93 275.523C313.173 275.407 313.358 275.197 313.444 274.943L312.497 274.622ZM314.504 267.536L313.512 267.411C313.511 267.419 313.51 267.427 313.509 267.435L314.504 267.536ZM304.557 250.552L304.979 249.645C304.953 249.633 304.926 249.622 304.898 249.612L304.557 250.552ZM275.633 240.048L275.974 239.109C275.949 239.099 275.922 239.091 275.896 239.084L275.633 240.048ZM254.084 253.411L254.425 252.471C254.176 252.38 253.901 252.393 253.661 252.505C253.42 252.617 253.235 252.82 253.144 253.069L254.084 253.411ZM255.707 300.815L256.048 299.875L255.707 300.815ZM280.814 309.933L280.473 310.873L280.814 309.933ZM303.463 299.535L304.403 299.876L303.463 299.535ZM312.508 274.627L313.448 274.968C313.637 274.449 313.369 273.875 312.85 273.687L312.508 274.627ZM264.107 275.982L264.408 275.028L264.405 275.027L264.107 275.982ZM262.292 272.387L261.352 272.046C261.347 272.059 261.342 272.073 261.338 272.086L262.292 272.387ZM267.654 274.11L266.707 273.79C266.705 273.796 266.703 273.803 266.701 273.81L267.654 274.11ZM265.936 270.547L266.277 269.607C266.263 269.602 266.248 269.597 266.233 269.593L265.936 270.547ZM277.287 280.768L277.588 279.814L277.584 279.813L277.287 280.768ZM275.471 277.173L274.531 276.832C274.526 276.845 274.521 276.859 274.517 276.872L275.471 277.173ZM280.834 278.896L279.886 278.576C279.884 278.582 279.882 278.589 279.88 278.595L280.834 278.896ZM279.115 275.333L279.456 274.393C279.442 274.388 279.427 274.383 279.413 274.378L279.115 275.333ZM286.032 297.463L285.67 298.395C285.677 298.398 285.684 298.401 285.691 298.403L286.032 297.463ZM284.373 293.738L285.313 294.079C285.315 294.072 285.317 294.066 285.32 294.059L284.373 293.738ZM288.003 291.937L288.344 290.997C288.337 290.994 288.33 290.992 288.323 290.99L288.003 291.937ZM271.193 288.952L270.254 288.611C270.249 288.624 270.244 288.638 270.24 288.651L271.193 288.952ZM273.008 292.55L273.309 291.596L273.306 291.595L273.008 292.55ZM274.837 287.115L275.178 286.175C275.163 286.17 275.149 286.165 275.134 286.161L274.837 287.115ZM276.554 290.682L275.607 290.361C275.604 290.368 275.602 290.374 275.6 290.381L276.554 290.682ZM257.982 284.154L257.042 283.813C257.037 283.827 257.033 283.84 257.028 283.854L257.982 284.154ZM259.797 287.753L260.098 286.799L260.094 286.798L259.797 287.753ZM261.625 282.318L261.966 281.378C261.952 281.373 261.937 281.368 261.923 281.363L261.625 282.318ZM263.343 285.884L262.395 285.564C262.393 285.57 262.391 285.577 262.389 285.584L263.343 285.884ZM288.694 281.938L289.634 282.279L288.694 281.938ZM292.313 280.166L292.654 279.226C292.648 279.224 292.641 279.221 292.634 279.219L292.313 280.166ZM288.682 281.97L287.742 281.629C287.739 281.636 287.737 281.642 287.735 281.649L288.682 281.97ZM290.466 285.553L290.788 284.607L290.786 284.606L290.466 285.553ZM294.032 283.729L294.979 284.05C294.981 284.043 294.984 284.036 294.986 284.028L294.032 283.729ZM255.027 253.776C255.39 252.841 255.952 251.45 256.514 250.159C257.09 248.834 257.624 247.715 257.936 247.25L256.275 246.136C255.843 246.779 255.239 248.075 254.68 249.361C254.105 250.682 253.533 252.098 253.163 253.052L255.027 253.776ZM312.838 273.682L254.436 252.474L253.754 254.354L312.156 275.562L312.838 273.682ZM313.509 267.435C313.454 267.971 313.147 269.167 312.736 270.56C312.337 271.914 311.872 273.349 311.55 274.301L313.444 274.943C313.773 273.971 314.246 272.51 314.654 271.125C315.051 269.779 315.421 268.395 315.499 267.638L313.509 267.435ZM304.134 251.458C310.95 254.635 314.376 260.541 313.512 267.411L315.496 267.661C316.48 259.847 312.505 253.153 304.979 249.645L304.134 251.458ZM275.292 240.988L304.215 251.492L304.898 249.612L275.974 239.109L275.292 240.988ZM257.948 247.232C261.717 241.346 268.058 239.025 275.371 241.013L275.896 239.084C267.815 236.886 260.544 239.468 256.263 246.154L257.948 247.232ZM246.051 278.462L255.024 253.752L253.144 253.069L244.171 277.78L246.051 278.462ZM256.048 299.875C251.165 298.102 247.817 295.152 246.106 291.506C244.395 287.859 244.262 283.39 246.051 278.462L244.171 277.78C242.236 283.109 242.318 288.141 244.295 292.355C246.272 296.568 250.083 299.837 255.365 301.755L256.048 299.875ZM281.156 308.993L256.048 299.875L255.365 301.755L280.473 310.873L281.156 308.993ZM302.523 299.194C300.746 304.087 297.811 307.383 294.183 309.042C290.553 310.703 286.094 310.786 281.156 308.993L280.473 310.873C285.796 312.806 290.812 312.784 295.015 310.861C299.222 308.937 302.481 305.171 304.403 299.876L302.523 299.194ZM311.568 274.285L302.523 299.194L304.403 299.876L313.448 274.968L311.568 274.285ZM253.743 254.351L312.167 275.567L312.85 273.687L254.425 252.471L253.743 254.351ZM264.405 275.027C263.465 274.734 262.925 273.704 263.245 272.688L261.338 272.086C260.704 274.096 261.751 276.295 263.81 276.937L264.405 275.027ZM266.701 273.81C266.387 274.804 265.345 275.324 264.408 275.028L263.807 276.936C265.8 277.565 267.963 276.456 268.608 274.411L266.701 273.81ZM265.594 271.487C266.533 271.828 267.028 272.842 266.707 273.79L268.602 274.431C269.275 272.44 268.225 270.314 266.277 269.607L265.594 271.487ZM263.231 272.728C263.596 271.723 264.663 271.198 265.638 271.502L266.233 269.593C264.209 268.962 262.071 270.065 261.352 272.046L263.231 272.728ZM277.584 279.813C276.644 279.52 276.104 278.49 276.425 277.473L274.517 276.872C273.884 278.882 274.93 281.081 276.989 281.722L277.584 279.813ZM279.88 278.595C279.566 279.59 278.525 280.11 277.588 279.814L276.986 281.721C278.98 282.35 281.142 281.242 281.787 279.197L279.88 278.595ZM278.774 276.273C279.712 276.614 280.207 277.628 279.886 278.576L281.781 279.217C282.455 277.226 281.404 275.1 279.456 274.393L278.774 276.273ZM276.411 277.514C276.776 276.509 277.842 275.984 278.817 276.288L279.413 274.378C277.388 273.747 275.25 274.85 274.531 276.832L276.411 277.514ZM286.394 296.531C285.451 296.165 284.951 295.074 285.313 294.079L283.433 293.396C282.71 295.387 283.687 297.625 285.67 298.395L286.394 296.531ZM288.82 295.353C288.45 296.37 287.351 296.878 286.374 296.523L285.691 298.403C287.728 299.143 289.961 298.069 290.7 296.035L288.82 295.353ZM287.693 292.888C288.671 293.244 289.188 294.339 288.82 295.353L290.7 296.035C291.437 294.004 290.412 291.748 288.376 291.009L287.693 292.888ZM287.661 292.877L287.693 292.888L288.376 291.009L288.344 290.997L287.661 292.877ZM285.32 294.059C285.653 293.077 286.718 292.558 287.682 292.884L288.323 290.99C286.313 290.309 284.113 291.389 283.426 293.417L285.32 294.059ZM270.24 288.651C269.605 290.663 270.651 292.863 272.711 293.505L273.306 291.595C272.366 291.302 271.825 290.273 272.147 289.253L270.24 288.651ZM275.134 286.161C273.111 285.53 270.973 286.628 270.254 288.611L272.133 289.293C272.498 288.29 273.562 287.766 274.539 288.07L275.134 286.161ZM277.501 291.002C278.176 289.009 277.126 286.883 275.178 286.175L274.495 288.055C275.433 288.396 275.929 289.41 275.607 290.361L277.501 291.002ZM272.707 293.504C274.7 294.132 276.864 293.025 277.508 290.982L275.6 290.381C275.288 291.371 274.247 291.892 273.309 291.596L272.707 293.504ZM257.028 283.854C256.394 285.866 257.439 288.065 259.499 288.707L260.094 286.798C259.155 286.505 258.614 285.476 258.936 284.455L257.028 283.854ZM261.923 281.363C259.9 280.733 257.762 281.831 257.042 283.813L258.922 284.496C259.286 283.492 260.351 282.968 261.328 283.273L261.923 281.363ZM264.29 286.205C264.964 284.212 263.915 282.085 261.966 281.378L261.284 283.258C262.222 283.598 262.717 284.612 262.395 285.564L264.29 286.205ZM259.496 288.706C261.489 289.335 263.652 288.227 264.296 286.185L262.389 285.584C262.077 286.574 261.035 287.095 260.098 286.799L259.496 288.706ZM289.634 282.279C289.995 281.284 291.034 280.789 291.993 281.113L292.634 279.219C290.618 278.537 288.477 279.606 287.754 281.596L289.634 282.279ZM289.622 282.312L289.634 282.279L287.754 281.596L287.742 281.629L289.622 282.312ZM290.786 284.606C289.812 284.276 289.301 283.258 289.629 282.291L287.735 281.649C287.045 283.685 288.146 285.824 290.145 286.501L290.786 284.606ZM293.085 283.408C292.743 284.415 291.693 284.915 290.788 284.607L290.143 286.5C292.145 287.181 294.3 286.053 294.979 284.05L293.085 283.408ZM291.972 281.106C292.886 281.438 293.382 282.459 293.077 283.43L294.986 284.028C295.593 282.09 294.626 279.942 292.654 279.226L291.972 281.106Z" fill="url(#paint5_linear_37_277)" mask="url(#path-9-outside-2_37_277)"/>
</g>
<g filter="url(#filter6_bd_37_277)">
<mask id="path-11-inside-3_37_277" fill="white">
<path fill-rule="evenodd" clip-rule="evenodd" d="M277.823 249.404C277.303 250.835 275.857 251.519 274.446 251.007C273.035 250.494 272.365 249.042 272.885 247.611L276.479 237.714C276.998 236.283 278.446 235.596 279.856 236.108C281.267 236.621 281.937 238.076 281.417 239.507L277.823 249.404ZM301.809 258.114C301.29 259.546 299.812 260.217 298.433 259.717C297.022 259.204 296.351 257.752 296.871 256.321L300.465 246.424C300.985 244.993 302.432 244.306 303.843 244.819C305.222 245.319 305.923 246.786 305.403 248.218L301.809 258.114Z"/>
</mask>
<path fill-rule="evenodd" clip-rule="evenodd" d="M277.823 249.404C277.303 250.835 275.857 251.519 274.446 251.007C273.035 250.494 272.365 249.042 272.885 247.611L276.479 237.714C276.998 236.283 278.446 235.596 279.856 236.108C281.267 236.621 281.937 238.076 281.417 239.507L277.823 249.404ZM301.809 258.114C301.29 259.546 299.812 260.217 298.433 259.717C297.022 259.204 296.351 257.752 296.871 256.321L300.465 246.424C300.985 244.993 302.432 244.306 303.843 244.819C305.222 245.319 305.923 246.786 305.403 248.218L301.809 258.114Z" fill="url(#paint6_linear_37_277)"/>
<path d="M296.871 256.321L296.495 256.184L296.871 256.321ZM300.465 246.424L300.841 246.561L300.465 246.424ZM274.31 251.382C275.932 251.972 277.605 251.175 278.199 249.54L277.447 249.267C277.001 250.495 275.782 251.066 274.583 250.631L274.31 251.382ZM272.509 247.474C271.915 249.109 272.687 250.793 274.31 251.382L274.583 250.631C273.384 250.195 272.815 248.975 273.261 247.747L272.509 247.474ZM276.103 237.578L272.509 247.474L273.261 247.747L276.855 237.851L276.103 237.578ZM279.993 235.732C278.37 235.143 276.696 235.943 276.103 237.578L276.855 237.851C277.301 236.622 278.521 236.049 279.72 236.484L279.993 235.732ZM281.793 239.644C282.386 238.01 281.616 236.322 279.993 235.732L279.72 236.484C280.919 236.92 281.487 238.142 281.041 239.371L281.793 239.644ZM278.199 249.54L281.793 239.644L281.041 239.371L277.447 249.267L278.199 249.54ZM298.296 260.093C299.884 260.669 301.591 259.889 302.185 258.251L301.433 257.978C300.989 259.202 299.74 259.766 298.569 259.341L298.296 260.093ZM296.495 256.184C295.902 257.819 296.674 259.504 298.296 260.093L298.569 259.341C297.37 258.905 296.801 257.685 297.247 256.457L296.495 256.184ZM300.089 246.288L296.495 256.184L297.247 256.457L300.841 246.561L300.089 246.288ZM303.979 244.443C302.356 243.853 300.683 244.654 300.089 246.288L300.841 246.561C301.287 245.333 302.508 244.759 303.706 245.195L303.979 244.443ZM305.779 248.354C306.374 246.717 305.567 245.019 303.979 244.443L303.706 245.195C304.876 245.619 305.472 246.856 305.027 248.081L305.779 248.354ZM302.185 258.251L305.779 248.354L305.027 248.081L301.433 257.978L302.185 258.251Z" fill="url(#paint7_linear_37_277)" mask="url(#path-11-inside-3_37_277)"/>
</g>
<g filter="url(#filter7_bd_37_277)">
<mask id="path-13-inside-4_37_277" fill="white">
<path fill-rule="evenodd" clip-rule="evenodd" d="M275.489 277.213C275.012 278.726 275.805 280.34 277.305 280.808C278.77 281.27 280.372 280.456 280.852 278.936C281.349 277.467 280.576 275.897 279.133 275.373C277.633 274.906 276.031 275.72 275.489 277.213ZM284.391 293.777C283.849 295.271 284.587 296.935 286.05 297.503C287.558 298.05 289.224 297.259 289.778 295.734C290.331 294.211 289.56 292.536 288.053 291.988L288.021 291.977C286.534 291.473 284.901 292.273 284.391 293.777ZM273.026 292.59C271.526 292.123 270.733 290.508 271.212 288.992C271.754 287.499 273.355 286.688 274.855 287.155C276.298 287.679 277.07 289.25 276.572 290.722C276.094 292.238 274.492 293.052 273.026 292.59ZM262.31 272.427C261.833 273.94 262.626 275.555 264.126 276.022C265.592 276.484 267.194 275.67 267.673 274.151C268.17 272.682 267.398 271.111 265.955 270.587C264.455 270.12 262.852 270.934 262.31 272.427ZM259.815 287.793C258.315 287.325 257.522 285.711 258 284.195C258.542 282.701 260.143 281.89 261.643 282.358C263.086 282.882 263.859 284.452 263.361 285.924C262.883 287.441 261.28 288.255 259.815 287.793ZM292.331 280.206C290.844 279.703 289.254 280.485 288.712 281.978L288.7 282.01C288.191 283.512 288.997 285.09 290.484 285.593C291.937 286.088 293.54 285.274 294.05 283.769C294.505 282.315 293.774 280.73 292.331 280.206Z"/>
</mask>
<path fill-rule="evenodd" clip-rule="evenodd" d="M275.489 277.213C275.012 278.726 275.805 280.34 277.305 280.808C278.77 281.27 280.372 280.456 280.852 278.936C281.349 277.467 280.576 275.897 279.133 275.373C277.633 274.906 276.031 275.72 275.489 277.213ZM284.391 293.777C283.849 295.271 284.587 296.935 286.05 297.503C287.558 298.05 289.224 297.259 289.778 295.734C290.331 294.211 289.56 292.536 288.053 291.988L288.021 291.977C286.534 291.473 284.901 292.273 284.391 293.777ZM273.026 292.59C271.526 292.123 270.733 290.508 271.212 288.992C271.754 287.499 273.355 286.688 274.855 287.155C276.298 287.679 277.07 289.25 276.572 290.722C276.094 292.238 274.492 293.052 273.026 292.59ZM262.31 272.427C261.833 273.94 262.626 275.555 264.126 276.022C265.592 276.484 267.194 275.67 267.673 274.151C268.17 272.682 267.398 271.111 265.955 270.587C264.455 270.12 262.852 270.934 262.31 272.427ZM259.815 287.793C258.315 287.325 257.522 285.711 258 284.195C258.542 282.701 260.143 281.89 261.643 282.358C263.086 282.882 263.859 284.452 263.361 285.924C262.883 287.441 261.28 288.255 259.815 287.793ZM292.331 280.206C290.844 279.703 289.254 280.485 288.712 281.978L288.7 282.01C288.191 283.512 288.997 285.09 290.484 285.593C291.937 286.088 293.54 285.274 294.05 283.769C294.505 282.315 293.774 280.73 292.331 280.206Z" fill="url(#paint8_linear_37_277)"/>
<path d="M277.305 280.808L277.425 280.426L277.424 280.426L277.305 280.808ZM275.489 277.213L275.113 277.076L275.11 277.084L275.107 277.093L275.489 277.213ZM280.852 278.936L280.473 278.808L280.47 278.816L280.852 278.936ZM279.133 275.373L279.27 274.997L279.261 274.994L279.252 274.991L279.133 275.373ZM286.05 297.503L285.906 297.876L285.914 297.879L286.05 297.503ZM284.391 293.777L284.767 293.914L284.77 293.906L284.391 293.777ZM288.021 291.977L288.157 291.601L288.149 291.598L288.021 291.977ZM271.212 288.992L270.836 288.855L270.833 288.864L270.83 288.872L271.212 288.992ZM273.026 292.59L273.147 292.209L273.145 292.208L273.026 292.59ZM274.855 287.155L274.991 286.779L274.982 286.776L274.974 286.774L274.855 287.155ZM276.572 290.722L276.193 290.593L276.19 290.601L276.572 290.722ZM264.126 276.022L264.247 275.641L264.245 275.64L264.126 276.022ZM262.31 272.427L261.934 272.291L261.931 272.299L261.929 272.307L262.31 272.427ZM267.673 274.151L267.294 274.022L267.292 274.03L267.673 274.151ZM265.955 270.587L266.091 270.212L266.082 270.208L266.074 270.206L265.955 270.587ZM258 284.195L257.624 284.058L257.621 284.066L257.619 284.074L258 284.195ZM259.815 287.793L259.935 287.411L259.934 287.411L259.815 287.793ZM261.643 282.358L261.78 281.982L261.771 281.979L261.762 281.976L261.643 282.358ZM263.361 285.924L262.982 285.796L262.979 285.804L263.361 285.924ZM292.331 280.206L292.468 279.83L292.459 279.827L292.331 280.206ZM288.7 282.01L288.324 281.874L288.321 281.882L288.7 282.01ZM290.484 285.593L290.613 285.215L290.612 285.215L290.484 285.593ZM294.05 283.769L294.429 283.898L294.431 283.889L294.05 283.769ZM277.424 280.426C276.148 280.028 275.456 278.648 275.87 277.333L275.107 277.093C274.568 278.804 275.462 280.652 277.186 281.19L277.424 280.426ZM280.47 278.816C280.057 280.125 278.679 280.822 277.425 280.426L277.184 281.189C278.861 281.718 280.688 280.786 281.233 279.056L280.47 278.816ZM278.997 275.749C280.238 276.2 280.899 277.548 280.473 278.808L281.231 279.064C281.798 277.387 280.914 275.594 279.27 274.997L278.997 275.749ZM275.865 277.349C276.336 276.052 277.724 275.353 279.014 275.755L279.252 274.991C277.543 274.458 275.726 275.388 275.113 277.076L275.865 277.349ZM286.195 297.13C284.94 296.643 284.297 295.208 284.767 293.914L284.015 293.641C283.4 295.333 284.234 297.227 285.906 297.876L286.195 297.13ZM289.402 295.597C288.922 296.919 287.482 297.597 286.187 297.127L285.914 297.879C287.633 298.503 289.526 297.599 290.154 295.87L289.402 295.597ZM287.916 292.364C289.212 292.835 289.881 294.279 289.402 295.597L290.154 295.87C290.781 294.144 289.908 292.236 288.189 291.612L287.916 292.364ZM287.884 292.353L287.916 292.364L288.189 291.612L288.157 291.601L287.884 292.353ZM284.77 293.906C285.209 292.61 286.615 291.923 287.893 292.356L288.149 291.598C286.453 291.024 284.593 291.935 284.012 293.649L284.77 293.906ZM270.83 288.872C270.289 290.586 271.183 292.435 272.907 292.972L273.145 292.208C271.87 291.81 271.177 290.43 271.593 289.112L270.83 288.872ZM274.974 286.774C273.265 286.241 271.449 287.167 270.836 288.855L271.588 289.128C272.059 287.831 273.445 287.135 274.736 287.537L274.974 286.774ZM276.951 290.85C277.52 289.169 276.636 287.377 274.991 286.779L274.718 287.531C275.959 287.982 276.621 289.33 276.193 290.594L276.951 290.85ZM272.906 292.971C274.582 293.5 276.409 292.569 276.953 290.842L276.19 290.601C275.779 291.907 274.401 292.604 273.147 292.209L272.906 292.971ZM264.245 275.64C262.969 275.242 262.278 273.862 262.692 272.548L261.929 272.307C261.389 274.019 262.284 275.867 264.007 276.404L264.245 275.64ZM267.292 274.03C266.879 275.34 265.501 276.036 264.247 275.641L264.006 276.404C265.683 276.933 267.509 276.001 268.055 274.271L267.292 274.03ZM265.818 270.963C267.059 271.414 267.721 272.762 267.294 274.022L268.052 274.279C268.62 272.601 267.736 270.809 266.091 270.212L265.818 270.963ZM262.686 272.564C263.158 271.266 264.545 270.567 265.836 270.969L266.074 270.206C264.364 269.673 262.547 270.602 261.934 272.291L262.686 272.564ZM257.619 284.074C257.078 285.789 257.972 287.637 259.696 288.174L259.934 287.411C258.658 287.013 257.966 285.633 258.382 284.315L257.619 284.074ZM261.762 281.976C260.053 281.443 258.237 282.369 257.624 284.058L258.376 284.331C258.847 283.034 260.234 282.338 261.524 282.74L261.762 281.976ZM263.739 286.053C264.308 284.372 263.425 282.579 261.78 281.982L261.507 282.734C262.748 283.185 263.409 284.532 262.982 285.796L263.739 286.053ZM259.695 288.174C261.371 288.703 263.198 287.771 263.742 286.045L262.979 285.804C262.567 287.11 261.19 287.807 259.935 287.411L259.695 288.174ZM289.088 282.114C289.558 280.82 290.928 280.153 292.203 280.585L292.459 279.827C290.761 279.253 288.95 280.149 288.336 281.841L289.088 282.114ZM289.076 282.147L289.088 282.114L288.336 281.841L288.324 281.874L289.076 282.147ZM290.612 285.215C289.33 284.781 288.642 283.426 289.079 282.139L288.321 281.882C287.74 283.597 288.664 285.4 290.356 285.972L290.612 285.215ZM293.671 283.641C293.228 284.946 291.847 285.635 290.613 285.215L290.355 285.972C292.028 286.542 293.851 285.602 294.429 283.898L293.671 283.641ZM292.195 280.582C293.426 281.029 294.063 282.388 293.668 283.65L294.431 283.889C294.948 282.241 294.122 280.431 292.468 279.83L292.195 280.582Z" fill="url(#paint9_linear_37_277)" mask="url(#path-13-inside-4_37_277)"/>
</g>
<g opacity="0.5" filter="url(#filter8_b_37_277)">
<path d="M256.976 254.737C256.475 256.116 257.147 257.594 258.579 258.114L304.848 274.915C306.279 275.435 307.746 274.734 308.247 273.355C308.759 271.944 308.072 270.497 306.641 269.977L260.372 253.176C258.941 252.656 257.489 253.326 256.976 254.737Z" fill="url(#paint10_linear_37_277)" fill-opacity="0.5"/>
</g>
<g filter="url(#filter9_dd_37_277)">
<path d="M166.993 133.624L91.3901 153.882C63.9668 161.23 52.3025 181.565 59.6747 209.079L84.6435 302.263C92.1365 330.228 112.309 341.646 139.732 334.298L215.336 314.04C243.201 306.574 254.511 286.72 247.018 258.755L222.049 165.571C214.677 138.057 194.859 126.157 166.993 133.624Z" fill="url(#paint11_linear_37_277)"/>
<g filter="url(#filter10_f_37_277)">
<rect x="115.258" y="301.79" width="120.608" height="102.133" rx="14" transform="rotate(-105 115.258 301.79)" fill="#8237FF" fill-opacity="0.5"/>
</g>
<g filter="url(#filter11_b_37_277)">
<path d="M238.089 181.844H159.818C131.428 181.844 114.898 198.468 114.898 226.952V323.424C114.898 352.375 131.428 368.625 159.818 368.625H238.089C266.937 368.625 283 352.375 283 323.424V226.952C283 198.468 266.937 181.844 238.089 181.844Z" fill="#E5E5E5" fill-opacity="0.08"/>
<path d="M238.089 181.344H159.818C145.526 181.344 134.155 185.531 126.357 193.364C118.56 201.197 114.398 212.614 114.398 226.952V323.424C114.398 337.993 118.559 349.435 126.358 357.234C134.157 365.034 145.529 369.125 159.818 369.125H238.089C252.605 369.125 263.976 365.035 271.717 357.233C279.458 349.432 283.5 337.99 283.5 323.424V226.952C283.5 212.618 279.457 201.2 271.718 193.365C263.979 185.53 252.608 181.344 238.089 181.344Z" stroke="url(#paint12_linear_37_277)" stroke-linecap="round" stroke-linejoin="round"/>
</g>
<g filter="url(#filter12_bd_37_277)">
<mask id="path-20-inside-5_37_277" fill="white">
<path fill-rule="evenodd" clip-rule="evenodd" d="M162.339 225.274V225.368C158.314 225.368 155.055 228.637 155.055 232.652C155.055 236.668 158.314 239.937 162.339 239.937H190.254C194.279 239.937 197.547 236.668 197.547 232.55C197.547 228.543 194.279 225.274 190.254 225.274H162.339ZM235.557 282.151H162.339C158.314 282.151 155.055 278.882 155.055 274.866C155.055 270.851 158.314 267.573 162.339 267.573H235.557C239.573 267.573 242.842 270.851 242.842 274.866C242.842 278.882 239.573 282.151 235.557 282.151ZM235.558 324.829H162.34C159.538 325.203 156.83 323.802 155.336 321.467C153.841 319.039 153.841 315.957 155.336 313.623C156.83 311.194 159.538 309.887 162.34 310.167H235.558C239.284 310.541 242.095 313.716 242.095 317.545C242.095 321.271 239.284 324.456 235.558 324.829Z"/>
</mask>
<path fill-rule="evenodd" clip-rule="evenodd" d="M162.339 225.274V225.368C158.314 225.368 155.055 228.637 155.055 232.652C155.055 236.668 158.314 239.937 162.339 239.937H190.254C194.279 239.937 197.547 236.668 197.547 232.55C197.547 228.543 194.279 225.274 190.254 225.274H162.339ZM235.557 282.151H162.339C158.314 282.151 155.055 278.882 155.055 274.866C155.055 270.851 158.314 267.573 162.339 267.573H235.557C239.573 267.573 242.842 270.851 242.842 274.866C242.842 278.882 239.573 282.151 235.557 282.151ZM235.558 324.829H162.34C159.538 325.203 156.83 323.802 155.336 321.467C153.841 319.039 153.841 315.957 155.336 313.623C156.83 311.194 159.538 309.887 162.34 310.167H235.558C239.284 310.541 242.095 313.716 242.095 317.545C242.095 321.271 239.284 324.456 235.558 324.829Z" fill="url(#paint13_linear_37_277)"/>
<path d="M162.339 225.368V225.768H162.739V225.368H162.339ZM162.339 225.274V224.874H161.939V225.274H162.339ZM162.34 324.829V324.429H162.313L162.287 324.433L162.34 324.829ZM235.558 324.829V325.229H235.578L235.598 325.227L235.558 324.829ZM155.336 321.467L154.995 321.677L154.999 321.683L155.336 321.467ZM155.336 313.623L155.673 313.838L155.676 313.832L155.336 313.623ZM162.34 310.167L162.3 310.565L162.32 310.567H162.34V310.167ZM235.558 310.167L235.598 309.769L235.578 309.767H235.558V310.167ZM162.739 225.368V225.274H161.939V225.368H162.739ZM155.455 232.652C155.455 228.857 158.535 225.768 162.339 225.768V224.968C158.093 224.968 154.655 228.416 154.655 232.652H155.455ZM162.339 239.537C158.535 239.537 155.455 236.447 155.455 232.652H154.655C154.655 236.889 158.093 240.337 162.339 240.337V239.537ZM190.254 239.537H162.339V240.337H190.254V239.537ZM197.147 232.55C197.147 236.45 194.055 239.537 190.254 239.537V240.337C194.503 240.337 197.947 236.886 197.947 232.55H197.147ZM190.254 225.674C194.058 225.674 197.147 228.765 197.147 232.55H197.947C197.947 228.322 194.499 224.874 190.254 224.874V225.674ZM162.339 225.674H190.254V224.874H162.339V225.674ZM162.339 282.551H235.557V281.751H162.339V282.551ZM154.655 274.866C154.655 279.103 158.093 282.551 162.339 282.551V281.751C158.535 281.751 155.455 278.662 155.455 274.866H154.655ZM162.339 267.173C158.092 267.173 154.655 270.631 154.655 274.866H155.455C155.455 271.07 158.536 267.973 162.339 267.973V267.173ZM235.557 267.173H162.339V267.973H235.557V267.173ZM243.242 274.866C243.242 270.63 239.795 267.173 235.557 267.173V267.973C239.351 267.973 242.442 271.071 242.442 274.866H243.242ZM235.557 282.551C239.794 282.551 243.242 279.103 243.242 274.866H242.442C242.442 278.661 239.352 281.751 235.557 281.751V282.551ZM162.34 325.229H235.558V324.429H162.34V325.229ZM154.999 321.683C156.569 324.137 159.424 325.622 162.393 325.226L162.287 324.433C159.653 324.784 157.091 323.467 155.673 321.252L154.999 321.683ZM154.999 313.407C153.419 315.876 153.423 319.123 154.995 321.677L155.676 321.258C154.26 318.956 154.264 316.039 155.673 313.838L154.999 313.407ZM162.38 309.769C159.428 309.474 156.571 310.852 154.995 313.413L155.676 313.832C157.089 311.537 159.649 310.3 162.3 310.565L162.38 309.769ZM235.558 309.767H162.34V310.567H235.558V309.767ZM242.495 317.545C242.495 313.518 239.536 310.164 235.598 309.769L235.518 310.565C239.032 310.917 241.695 313.914 241.695 317.545H242.495ZM235.598 325.227C239.533 324.833 242.495 321.472 242.495 317.545H241.695C241.695 321.07 239.035 324.079 235.518 324.431L235.598 325.227Z" fill="url(#paint14_linear_37_277)" mask="url(#path-20-inside-5_37_277)"/>
</g>
</g>
<path d="M80.9154 192.153L72.9196 183.449C70.0194 180.292 66.4822 180.152 63.3148 183.062L52.5873 192.917C49.3679 195.875 49.2496 199.373 52.1499 202.53L60.1456 211.233C63.0927 214.441 66.5406 214.568 69.7599 211.61L80.4875 201.755C83.6549 198.845 83.8624 195.361 80.9154 192.153Z" fill="url(#paint15_linear_37_277)"/>
<g opacity="0.5" filter="url(#filter13_f_37_277)">
<path d="M76.3315 193.806L70.884 187.876C68.908 185.725 66.4981 185.63 64.3401 187.612L57.0313 194.327C54.838 196.342 54.7573 198.725 56.7333 200.876L62.1809 206.806C64.1887 208.991 66.5378 209.077 68.7312 207.062L76.04 200.348C78.198 198.365 78.3394 195.991 76.3315 193.806Z" fill="#39B93A"/>
</g>
<g filter="url(#filter14_b_37_277)">
<mask id="path-24-outside-6_37_277" maskUnits="userSpaceOnUse" x="30.325" y="173.992" width="48.3105" height="48.3105" fill="black">
<rect fill="white" x="30.325" y="173.992" width="48.3105" height="48.3105"/>
<path d="M69.0397 187.849L57.1659 180.306C52.5232 177.356 47.33 178.632 44.2501 183.48L37.1419 194.669C34.0707 199.504 35.1225 204.747 39.7652 207.696L51.639 215.239C56.2817 218.189 61.4612 216.904 64.5324 212.07L71.6406 200.881C74.7205 196.033 73.6824 190.798 69.0397 187.849Z"/>
</mask>
<path d="M69.0397 187.849L57.1659 180.306C52.5232 177.356 47.33 178.632 44.2501 183.48L37.1419 194.669C34.0707 199.504 35.1225 204.747 39.7652 207.696L51.639 215.239C56.2817 218.189 61.4612 216.904 64.5324 212.07L71.6406 200.881C74.7205 196.033 73.6824 190.798 69.0397 187.849Z" fill="#72DC60" fill-opacity="0.35"/>
<path d="M68.5035 188.693C68.9696 188.989 69.5876 188.851 69.8838 188.385C70.1799 187.919 70.0421 187.301 69.5759 187.005L68.5035 188.693ZM69.5759 187.005C69.1097 186.709 68.4918 186.846 68.1956 187.313C67.8995 187.779 68.0373 188.397 68.5035 188.693L69.5759 187.005ZM69.5759 187.005L57.7021 179.461L56.6297 181.15L68.5035 188.693L69.5759 187.005ZM57.7021 179.461C55.1758 177.857 52.4394 177.369 49.8833 177.998C47.3322 178.625 45.0622 180.337 43.406 182.944L45.0942 184.016C46.5179 181.775 48.3845 180.425 50.3606 179.94C52.3317 179.455 54.5132 179.805 56.6297 181.15L57.7021 179.461ZM43.406 182.944L36.2978 194.133L37.986 195.205L45.0942 184.016L43.406 182.944ZM36.2978 194.133C34.6456 196.734 34.0628 199.513 34.5805 202.087C35.0992 204.665 36.7028 206.935 39.229 208.54L40.3014 206.852C38.185 205.507 36.9413 203.681 36.5412 201.692C36.1401 199.698 36.567 197.439 37.986 195.205L36.2978 194.133ZM39.229 208.54L51.1028 216.083L52.1752 214.395L40.3014 206.852L39.229 208.54ZM51.1028 216.083C53.6292 217.688 56.3624 218.173 58.9143 217.544C61.4609 216.917 63.7249 215.206 65.3765 212.606L63.6883 211.534C62.2687 213.768 60.4074 215.117 58.4357 215.603C56.4694 216.087 54.2915 215.74 52.1752 214.395L51.1028 216.083ZM65.3765 212.606L72.4847 201.417L70.7965 200.345L63.6883 211.534L65.3765 212.606ZM72.4847 201.417C74.1402 198.811 74.7296 196.031 74.2168 193.457C73.703 190.878 72.1023 188.61 69.5759 187.005L68.5035 188.693C70.6197 190.037 71.8595 191.861 72.2554 193.848C72.6524 195.841 72.2209 198.102 70.7965 200.345L72.4847 201.417Z" fill="url(#paint16_linear_37_277)" mask="url(#path-24-outside-6_37_277)"/>
</g>
<g filter="url(#filter15_bd_37_277)">
<mask id="path-26-inside-7_37_277" fill="white">
<path d="M49.9442 201.183C49.6374 200.989 49.4046 200.677 49.3191 200.294L48.1339 194.98C47.963 194.214 48.445 193.455 49.2101 193.286C49.976 193.115 50.7342 193.595 50.9051 194.361L51.7817 198.291L61.0266 196.229C61.7925 196.058 62.5498 196.539 62.7207 197.305C62.8915 198.071 62.4095 198.83 61.6436 199.001L51.0146 201.371C50.6317 201.457 50.2509 201.378 49.9442 201.183Z"/>
</mask>
<path d="M49.9442 201.183C49.6374 200.989 49.4046 200.677 49.3191 200.294L48.1339 194.98C47.963 194.214 48.445 193.455 49.2101 193.286C49.976 193.115 50.7342 193.595 50.9051 194.361L51.7817 198.291L61.0266 196.229C61.7925 196.058 62.5498 196.539 62.7207 197.305C62.8915 198.071 62.4095 198.83 61.6436 199.001L51.0146 201.371C50.6317 201.457 50.2509 201.378 49.9442 201.183Z" fill="url(#paint17_linear_37_277)"/>
<path d="M49.2101 193.286L49.2533 193.481L49.2536 193.481L49.2101 193.286ZM51.7817 198.291L51.5865 198.335L51.63 198.53L51.8252 198.486L51.7817 198.291ZM61.6436 199.001L61.6 198.806L61.6436 199.001ZM51.0146 201.371L51.0582 201.567L51.0146 201.371ZM50.0514 201.015C49.7874 200.847 49.5877 200.58 49.5143 200.251L49.1239 200.338C49.2214 200.775 49.4874 201.13 49.8369 201.352L50.0514 201.015ZM49.5143 200.251L48.3291 194.936L47.9386 195.023L49.1239 200.338L49.5143 200.251ZM48.3291 194.936C48.1822 194.278 48.5965 193.627 49.2533 193.481L49.1668 193.09C48.2936 193.284 47.7438 194.15 47.9386 195.023L48.3291 194.936ZM49.2536 193.481C49.9122 193.334 50.5632 193.746 50.7099 194.404L51.1003 194.317C50.9053 193.443 50.0399 192.896 49.1665 193.091L49.2536 193.481ZM50.7099 194.404L51.5865 198.335L51.9769 198.248L51.1003 194.317L50.7099 194.404ZM51.8252 198.486L61.0701 196.424L60.983 196.034L51.7381 198.096L51.8252 198.486ZM61.0701 196.424C61.7282 196.278 62.3787 196.691 62.5255 197.349L62.9159 197.262C62.721 196.388 61.8568 195.839 60.983 196.034L61.0701 196.424ZM62.5255 197.349C62.6722 198.007 62.2582 198.659 61.6 198.806L61.6871 199.196C62.5608 199.001 63.1107 198.136 62.9159 197.262L62.5255 197.349ZM61.6 198.806L50.9711 201.176L51.0582 201.567L61.6871 199.196L61.6 198.806ZM50.9711 201.176C50.6422 201.25 50.3154 201.182 50.0514 201.015L49.8369 201.352C50.1864 201.574 50.6211 201.664 51.0582 201.567L50.9711 201.176Z" fill="url(#paint18_linear_37_277)" fill-opacity="0.5" mask="url(#path-26-inside-7_37_277)"/>
</g>
<path d="M104.347 327.157C103.291 326.257 102.744 325.42 102.501 323.888L102.419 323.367C102.103 321.371 101.44 320.158 100.238 319.03C98.3819 317.276 95.5998 316.483 93.0627 316.884L92.9548 316.901C90.4711 317.294 88.1425 318.84 86.8797 321.004C86.0339 322.483 85.7335 323.905 86.0582 325.957L86.1406 326.478C86.3831 328.009 86.1476 328.971 85.3946 330.157C84.8408 331.03 84.7809 332.049 84.9497 333.115C85.1186 334.183 85.629 335.138 86.4621 335.849C87.5356 336.689 88.931 337.113 90.272 337.012C92.223 336.928 94.1525 336.707 96.0968 336.399C98.0399 336.091 99.9346 335.65 101.826 335.184C103.132 334.865 104.328 334.031 105.089 332.901C105.661 331.968 105.853 330.901 105.684 329.834C105.515 328.767 105.143 327.816 104.347 327.157Z" fill="url(#paint19_linear_37_277)"/>
<path d="M98.7978 337.603C98.1674 337.569 94.4521 338.157 93.863 338.384C93.3608 338.587 92.8415 338.956 92.9387 339.57C93.0618 340.151 93.4867 340.614 94.0137 340.867L94.0127 340.868C94.7031 341.25 95.4726 341.44 96.2451 341.43C96.6562 341.422 97.0656 341.354 97.4742 341.236C98.2109 341.007 98.8839 340.588 99.4226 340.012L99.4212 340.011C99.8445 339.608 100.106 339.036 100.043 338.445C99.946 337.831 99.338 337.64 98.7978 337.603Z" fill="url(#paint20_linear_37_277)"/>
<g opacity="0.5" filter="url(#filter16_f_37_277)">
<path d="M99.7806 327.096C99.2576 326.473 98.975 325.907 98.8146 324.893L98.7601 324.549C98.5511 323.228 98.2029 322.411 97.604 321.634C96.6794 320.426 95.3489 319.82 94.1698 320.006L94.1196 320.014C92.9653 320.197 91.9189 321.141 91.3917 322.524C91.0395 323.47 90.9416 324.395 91.1564 325.752L91.211 326.097C91.3714 327.11 91.29 327.735 90.9725 328.49C90.739 329.047 90.7419 329.715 90.8535 330.42C90.9653 331.126 91.234 331.77 91.6468 332.261C92.1764 332.846 92.8445 333.167 93.4711 333.141C94.3847 333.145 95.284 333.059 96.1876 332.916C97.0907 332.773 97.9669 332.541 98.841 332.292C99.4442 332.122 99.9806 331.611 100.304 330.891C100.544 330.296 100.602 329.601 100.49 328.895C100.378 328.19 100.175 327.554 99.7806 327.096Z" fill="#0062FF"/>
</g>
<g filter="url(#filter17_b_37_277)">
<mask id="path-31-outside-8_37_277" maskUnits="userSpaceOnUse" x="83.1174" y="297.427" width="44.9086" height="44.4612" fill="black">
<rect fill="white" x="83.1174" y="297.427" width="44.9086" height="44.4612"/>
<path d="M117.823 313.948C115.892 313.483 114.65 312.768 113.348 310.969L112.905 310.357C111.208 308.013 109.575 306.893 107.308 306.231C103.802 305.194 99.7343 305.983 96.7543 308.14L96.6276 308.232C93.7102 310.344 91.7379 313.827 91.5275 317.409C91.4055 319.846 91.9437 321.857 93.6877 324.267L94.1305 324.879C95.4328 326.678 95.7551 328.058 95.5618 330.061C95.4204 331.535 96.0045 332.876 96.911 334.128C97.8185 335.382 99.0895 336.271 100.614 336.639C102.529 337.016 104.586 336.653 106.234 335.656C108.671 334.284 110.992 332.751 113.276 331.098C115.558 329.446 117.692 327.655 119.806 325.833C121.266 324.58 122.253 322.74 122.494 320.802C122.619 319.24 122.173 317.754 121.265 316.5C120.359 315.248 119.268 314.274 117.823 313.948Z"/>
</mask>
<path d="M117.823 313.948C115.892 313.483 114.65 312.768 113.348 310.969L112.905 310.357C111.208 308.013 109.575 306.893 107.308 306.231C103.802 305.194 99.7343 305.983 96.7543 308.14L96.6276 308.232C93.7102 310.344 91.7379 313.827 91.5275 317.409C91.4055 319.846 91.9437 321.857 93.6877 324.267L94.1305 324.879C95.4328 326.678 95.7551 328.058 95.5618 330.061C95.4204 331.535 96.0045 332.876 96.911 334.128C97.8185 335.382 99.0895 336.271 100.614 336.639C102.529 337.016 104.586 336.653 106.234 335.656C108.671 334.284 110.992 332.751 113.276 331.098C115.558 329.446 117.692 327.655 119.806 325.833C121.266 324.58 122.253 322.74 122.494 320.802C122.619 319.24 122.173 317.754 121.265 316.5C120.359 315.248 119.268 314.274 117.823 313.948Z" fill="#3EA0FE" fill-opacity="0.35"/>
<path d="M117.589 314.92C118.126 315.049 118.666 314.719 118.795 314.182C118.925 313.645 118.594 313.105 118.057 312.975L117.589 314.92ZM107.308 306.231L107.025 307.19L107.028 307.191L107.308 306.231ZM91.5275 317.409L90.5292 317.351L90.5287 317.359L91.5275 317.409ZM95.5618 330.061L94.5664 329.965L94.5664 329.965L95.5618 330.061ZM100.614 336.639L100.38 337.611C100.393 337.614 100.407 337.617 100.421 337.62L100.614 336.639ZM106.234 335.656L105.743 334.785C105.734 334.79 105.725 334.795 105.716 334.8L106.234 335.656ZM119.806 325.833L119.155 325.074L119.153 325.075L119.806 325.833ZM122.494 320.802L123.486 320.925C123.488 320.911 123.489 320.897 123.49 320.882L122.494 320.802ZM118.043 312.972C117.505 312.851 116.969 313.189 116.848 313.727C116.726 314.266 117.064 314.802 117.603 314.923L118.043 312.972ZM118.057 312.975C117.158 312.759 116.481 312.499 115.892 312.119C115.306 311.74 114.755 311.208 114.158 310.383L112.538 311.555C113.242 312.529 113.964 313.254 114.807 313.799C115.648 314.342 116.558 314.672 117.589 314.92L118.057 312.975ZM114.158 310.383L113.715 309.771L112.095 310.944L112.538 311.555L114.158 310.383ZM113.715 309.771C111.899 307.262 110.086 306 107.588 305.271L107.028 307.191C109.063 307.785 110.517 308.763 112.095 310.944L113.715 309.771ZM107.592 305.272C103.77 304.142 99.3833 305.003 96.168 307.33L97.3406 308.95C100.085 306.964 103.834 306.246 107.025 307.19L107.592 305.272ZM96.168 307.33L96.0412 307.422L97.2139 309.042L97.3406 308.95L96.168 307.33ZM96.0412 307.422C92.8903 309.703 90.7579 313.457 90.5292 317.351L92.5258 317.468C92.7179 314.197 94.53 310.985 97.2139 309.042L96.0412 307.422ZM90.5287 317.359C90.3949 320.033 91.006 322.267 92.8776 324.853L94.4978 323.681C92.8813 321.447 92.4162 319.659 92.5262 317.459L90.5287 317.359ZM92.8776 324.853L93.3204 325.465L94.9406 324.292L94.4978 323.681L92.8776 324.853ZM93.3204 325.465C93.9225 326.297 94.2618 326.982 94.4409 327.652C94.6199 328.321 94.6557 329.04 94.5664 329.965L96.5572 330.157C96.6612 329.079 96.6325 328.106 96.3731 327.135C96.1138 326.165 95.6408 325.26 94.9406 324.292L93.3204 325.465ZM94.5664 329.965C94.3923 331.781 95.1235 333.364 96.1009 334.714L97.7211 333.542C96.8856 332.387 96.4486 331.289 96.5573 330.156L94.5664 329.965ZM96.1009 334.714C97.1404 336.15 98.6107 337.185 100.38 337.611L100.848 335.667C99.5683 335.358 98.4966 334.613 97.7211 333.542L96.1009 334.714ZM100.421 337.62C102.579 338.045 104.889 337.638 106.752 336.512L105.716 334.8C104.283 335.668 102.48 335.987 100.807 335.658L100.421 337.62ZM106.725 336.527C109.202 335.132 111.556 333.577 113.862 331.908L112.689 330.288C110.428 331.924 108.139 333.435 105.743 334.785L106.725 336.527ZM113.862 331.908C116.18 330.23 118.341 328.416 120.459 326.59L119.153 325.075C117.043 326.894 114.936 328.662 112.689 330.288L113.862 331.908ZM120.457 326.592C122.108 325.176 123.215 323.108 123.486 320.925L121.501 320.679C121.291 322.371 120.425 323.984 119.155 325.074L120.457 326.592ZM123.49 320.882C123.636 319.071 123.115 317.351 122.075 315.914L120.455 317.086C121.23 318.157 121.603 319.409 121.497 320.722L123.49 320.882ZM122.075 315.914C121.098 314.563 119.823 313.374 118.043 312.972L117.603 314.923C118.713 315.174 119.62 315.932 120.455 317.086L122.075 315.914Z" fill="url(#paint21_linear_37_277)" mask="url(#path-31-outside-8_37_277)"/>
</g>
<g filter="url(#filter18_b_37_277)">
<mask id="path-33-outside-9_37_277" maskUnits="userSpaceOnUse" x="108.955" y="328.041" width="15.2216" height="14.1029" fill="black">
<rect fill="white" x="108.955" y="328.041" width="15.2216" height="14.1029"/>
<path d="M117.505 330.884C116.678 331.25 112.314 334.408 111.709 335.08C111.199 335.664 110.775 336.472 111.297 337.194C111.831 337.856 112.673 338.172 113.51 338.153L113.51 338.156C114.639 338.196 115.745 337.941 116.725 337.427C117.245 337.15 117.724 336.799 118.169 336.382C118.962 335.613 119.55 334.642 119.864 333.556L119.862 333.556C120.141 332.767 120.104 331.868 119.642 331.154C119.12 330.432 118.22 330.582 117.505 330.884Z"/>
</mask>
<path d="M117.505 330.884C116.678 331.25 112.314 334.408 111.709 335.08C111.199 335.664 110.775 336.472 111.297 337.194C111.831 337.856 112.673 338.172 113.51 338.153L113.51 338.156C114.639 338.196 115.745 337.941 116.725 337.427C117.245 337.15 117.724 336.799 118.169 336.382C118.962 335.613 119.55 334.642 119.864 333.556L119.862 333.556C120.141 332.767 120.104 331.868 119.642 331.154C119.12 330.432 118.22 330.582 117.505 330.884Z" fill="#3EA0FE" fill-opacity="0.35"/>
<path d="M117.909 331.799C118.414 331.576 118.643 330.985 118.42 330.48C118.196 329.975 117.606 329.746 117.101 329.97L117.909 331.799ZM111.709 335.08L110.966 334.41C110.962 334.414 110.959 334.418 110.955 334.422L111.709 335.08ZM111.297 337.194L110.487 337.78C110.497 337.794 110.507 337.808 110.518 337.821L111.297 337.194ZM113.51 338.153L114.499 338.305C114.543 338.013 114.457 337.716 114.262 337.494C114.067 337.271 113.783 337.147 113.488 337.154L113.51 338.153ZM113.51 338.156L112.521 338.004C112.478 338.286 112.557 338.573 112.74 338.793C112.922 339.013 113.189 339.145 113.474 339.155L113.51 338.156ZM116.725 337.427L117.189 338.313L117.196 338.309L116.725 337.427ZM118.169 336.382L118.852 337.112C118.857 337.108 118.861 337.104 118.865 337.1L118.169 336.382ZM119.864 333.556L120.825 333.835C120.904 333.561 120.863 333.265 120.711 333.024C120.559 332.782 120.31 332.617 120.029 332.57L119.864 333.556ZM119.862 333.556L118.919 333.222C118.821 333.501 118.85 333.809 119 334.064C119.151 334.318 119.406 334.494 119.697 334.542L119.862 333.556ZM119.642 331.154L120.481 330.61C120.472 330.595 120.462 330.581 120.452 330.567L119.642 331.154ZM117.116 329.963C116.607 330.178 116.369 330.764 116.584 331.273C116.799 331.782 117.385 332.02 117.894 331.805L117.116 329.963ZM117.101 329.97C116.798 330.103 116.294 330.424 115.779 330.768C115.232 331.135 114.579 331.593 113.937 332.057C113.295 332.522 112.657 332.999 112.138 333.404C111.649 333.786 111.187 334.165 110.966 334.41L112.451 335.749C112.533 335.659 112.843 335.391 113.369 334.98C113.864 334.594 114.482 334.132 115.11 333.677C115.738 333.223 116.37 332.78 116.892 332.431C117.446 332.059 117.798 331.848 117.909 331.799L117.101 329.97ZM110.955 334.422C110.654 334.768 110.316 335.246 110.154 335.81C109.981 336.416 110.015 337.128 110.487 337.78L112.107 336.607C112.07 336.556 112.063 336.524 112.06 336.505C112.056 336.48 112.056 336.435 112.077 336.36C112.125 336.195 112.254 335.976 112.462 335.737L110.955 334.422ZM110.518 337.821C111.282 338.77 112.447 339.177 113.533 339.153L113.488 337.154C112.9 337.167 112.379 336.943 112.076 336.566L110.518 337.821ZM112.522 338.002L112.521 338.004L114.498 338.307L114.499 338.305L112.522 338.002ZM113.474 339.155C114.778 339.202 116.056 338.907 117.189 338.313L116.261 336.541C115.434 336.974 114.5 337.19 113.545 337.156L113.474 339.155ZM117.196 338.309C117.801 337.987 118.35 337.582 118.852 337.112L117.485 335.652C117.098 336.015 116.689 336.313 116.254 336.545L117.196 338.309ZM118.865 337.1C119.782 336.209 120.462 335.087 120.825 333.835L118.904 333.278C118.638 334.196 118.141 335.016 117.472 335.664L118.865 337.1ZM120.029 332.57L120.026 332.57L119.697 334.542L119.7 334.543L120.029 332.57ZM120.805 333.89C121.167 332.866 121.143 331.632 120.481 330.61L118.803 331.697C119.066 332.103 119.115 332.668 118.919 333.222L120.805 333.89ZM120.452 330.567C119.98 329.915 119.314 329.661 118.685 329.636C118.098 329.613 117.538 329.785 117.116 329.963L117.894 331.805C118.186 331.682 118.434 331.628 118.606 331.634C118.684 331.637 118.726 331.652 118.749 331.663C118.767 331.672 118.795 331.689 118.832 331.74L120.452 330.567Z" fill="url(#paint22_linear_37_277)" mask="url(#path-33-outside-9_37_277)"/>
</g>
<g filter="url(#filter19_bd_37_277)">
<path d="M103.904 310.006C103.274 310.133 102.844 310.725 102.907 311.346C102.981 311.675 103.171 311.973 103.455 312.152C103.738 312.33 104.086 312.392 104.428 312.319L104.475 312.313C105.531 312.179 106.567 312.705 107.053 313.627C107.359 314.233 108.096 314.477 108.704 314.184C109.309 313.877 109.556 313.154 109.264 312.562C108.275 310.706 106.195 309.668 104.084 309.983L103.904 310.006Z" fill="url(#paint23_linear_37_277)"/>
<path d="M104.407 312.221L104.407 312.221L104.415 312.22L104.462 312.214C105.558 312.074 106.635 312.62 107.141 313.581L107.141 313.581L107.142 313.582C107.423 314.138 108.1 314.363 108.659 314.095C109.217 313.811 109.441 313.149 109.175 312.608C108.206 310.791 106.168 309.773 104.099 310.082L104.099 310.082L104.097 310.083L103.92 310.105C103.345 310.222 102.952 310.763 103.006 311.33C103.076 311.634 103.251 311.905 103.508 312.067C103.769 312.232 104.09 312.289 104.407 312.221Z" stroke="url(#paint24_linear_37_277)" stroke-opacity="0.5" stroke-width="0.2"/>
</g>
<defs>
<filter id="filter0_dddddd_37_277" x="-165.729" y="-225.03" width="776.623" height="772.61" filterUnits="userSpaceOnUse" color-interpolation-filters="sRGB">
<feFlood flood-opacity="0" result="BackgroundImageFix"/>
<feColorMatrix in="SourceAlpha" type="matrix" values="0 0 0 0 0 0 0 0 0 0 0 0 0 0 0 0 0 0 127 0" result="hardAlpha"/>
<feOffset dy="0.249053"/>
<feGaussianBlur stdDeviation="5.1471"/>
<feColorMatrix type="matrix" values="0 0 0 0 0.972549 0 0 0 0 0.4 0 0 0 0 0.321569 0 0 0 0.0871551 0"/>
<feBlend mode="normal" in2="BackgroundImageFix" result="effect1_dropShadow_37_277"/>
<feColorMatrix in="SourceAlpha" type="matrix" values="0 0 0 0 0 0 0 0 0 0 0 0 0 0 0 0 0 0 127 0" result="hardAlpha"/>
<feOffset dy="0.598509"/>
<feGaussianBlur stdDeviation="12.3692"/>
<feColorMatrix type="matrix" values="0 0 0 0 0.972549 0 0 0 0 0.4 0 0 0 0 0.321569 0 0 0 0.125207 0"/>
<feBlend mode="normal" in2="effect1_dropShadow_37_277" result="effect2_dropShadow_37_277"/>
<feColorMatrix in="SourceAlpha" type="matrix" values="0 0 0 0 0 0 0 0 0 0 0 0 0 0 0 0 0 0 127 0" result="hardAlpha"/>
<feOffset dy="1.12694"/>
<feGaussianBlur stdDeviation="23.2901"/>
<feColorMatrix type="matrix" values="0 0 0 0 0.972549 0 0 0 0 0.4 0 0 0 0 0.321569 0 0 0 0.155 0"/>
<feBlend mode="normal" in2="effect2_dropShadow_37_277" result="effect3_dropShadow_37_277"/>
<feColorMatrix in="SourceAlpha" type="matrix" values="0 0 0 0 0 0 0 0 0 0 0 0 0 0 0 0 0 0 127 0" result="hardAlpha"/>
<feOffset dy="2.01027"/>
<feGaussianBlur stdDeviation="41.5455"/>
<feColorMatrix type="matrix" values="0 0 0 0 0.972549 0 0 0 0 0.4 0 0 0 0 0.321569 0 0 0 0.184793 0"/>
<feBlend mode="normal" in2="effect3_dropShadow_37_277" result="effect4_dropShadow_37_277"/>
<feColorMatrix in="SourceAlpha" type="matrix" values="0 0 0 0 0 0 0 0 0 0 0 0 0 0 0 0 0 0 127 0" result="hardAlpha"/>
<feOffset dy="3.75998"/>
<feGaussianBlur stdDeviation="77.7064"/>
<feColorMatrix type="matrix" values="0 0 0 0 0.972549 0 0 0 0 0.4 0 0 0 0 0.321569 0 0 0 0.222845 0"/>
<feBlend mode="normal" in2="effect4_dropShadow_37_277" result="effect5_dropShadow_37_277"/>
<feColorMatrix in="SourceAlpha" type="matrix" values="0 0 0 0 0 0 0 0 0 0 0 0 0 0 0 0 0 0 127 0" result="hardAlpha"/>
<feOffset dy="9"/>
<feGaussianBlur stdDeviation="186"/>
<feColorMatrix type="matrix" values="0 0 0 0 0.972549 0 0 0 0 0.4 0 0 0 0 0.321569 0 0 0 0.31 0"/>
<feBlend mode="normal" in2="effect5_dropShadow_37_277" result="effect6_dropShadow_37_277"/>
<feBlend mode="normal" in="SourceGraphic" in2="effect6_dropShadow_37_277" result="shape"/>
</filter>
<filter id="filter1_f_37_277" x="204.607" y="130.264" width="45.664" height="45.7344" filterUnits="userSpaceOnUse" color-interpolation-filters="sRGB">
<feFlood flood-opacity="0" result="BackgroundImageFix"/>
<feBlend mode="normal" in="SourceGraphic" in2="BackgroundImageFix" result="shape"/>
<feGaussianBlur stdDeviation="7.5" result="effect1_foregroundBlur_37_277"/>
</filter>
<filter id="filter2_b_37_277" x="191.271" y="122.97" width="58.257" height="58.6103" filterUnits="userSpaceOnUse" color-interpolation-filters="sRGB">
<feFlood flood-opacity="0" result="BackgroundImageFix"/>
<feGaussianBlur in="BackgroundImage" stdDeviation="7.5"/>
<feComposite in2="SourceAlpha" operator="in" result="effect1_backgroundBlur_37_277"/>
<feBlend mode="normal" in="SourceGraphic" in2="effect1_backgroundBlur_37_277" result="shape"/>
</filter>
<filter id="filter3_bd_37_277" x="196.916" y="138.3" width="41.7553" height="37.5836" filterUnits="userSpaceOnUse" color-interpolation-filters="sRGB">
<feFlood flood-opacity="0" result="BackgroundImageFix"/>
<feGaussianBlur in="BackgroundImage" stdDeviation="7.5"/>
<feComposite in2="SourceAlpha" operator="in" result="effect1_backgroundBlur_37_277"/>
<feColorMatrix in="SourceAlpha" type="matrix" values="0 0 0 0 0 0 0 0 0 0 0 0 0 0 0 0 0 0 127 0" result="hardAlpha"/>
<feOffset dx="5" dy="5"/>
<feGaussianBlur stdDeviation="5"/>
<feColorMatrix type="matrix" values="0 0 0 0 0.976471 0 0 0 0 0.435294 0 0 0 0 0.352941 0 0 0 0.5 0"/>
<feBlend mode="normal" in2="effect1_backgroundBlur_37_277" result="effect2_dropShadow_37_277"/>
<feBlend mode="normal" in="SourceGraphic" in2="effect2_dropShadow_37_277" result="shape"/>
</filter>
<filter id="filter4_f_37_277" x="225.408" y="212.364" width="87.5029" height="88.1181" filterUnits="userSpaceOnUse" color-interpolation-filters="sRGB">
<feFlood flood-opacity="0" result="BackgroundImageFix"/>
<feBlend mode="normal" in="SourceGraphic" in2="BackgroundImageFix" result="shape"/>
<feGaussianBlur stdDeviation="9.5" result="effect1_foregroundBlur_37_277"/>
</filter>
<filter id="filter5_b_37_277" x="218.765" y="214.317" width="120.879" height="121.996" filterUnits="userSpaceOnUse" color-interpolation-filters="sRGB">
<feFlood flood-opacity="0" result="BackgroundImageFix"/>
<feGaussianBlur in="BackgroundImage" stdDeviation="12"/>
<feComposite in2="SourceAlpha" operator="in" result="effect1_backgroundBlur_37_277"/>
<feBlend mode="normal" in="SourceGraphic" in2="effect1_backgroundBlur_37_277" result="shape"/>
</filter>
<filter id="filter6_bd_37_277" x="257.71" y="220.939" width="62.8651" height="53.942" filterUnits="userSpaceOnUse" color-interpolation-filters="sRGB">
<feFlood flood-opacity="0" result="BackgroundImageFix"/>
<feGaussianBlur in="BackgroundImage" stdDeviation="7.5"/>
<feComposite in2="SourceAlpha" operator="in" result="effect1_backgroundBlur_37_277"/>
<feColorMatrix in="SourceAlpha" type="matrix" values="0 0 0 0 0 0 0 0 0 0 0 0 0 0 0 0 0 0 127 0" result="hardAlpha"/>
<feOffset dx="5" dy="5"/>
<feGaussianBlur stdDeviation="5"/>
<feColorMatrix type="matrix" values="0 0 0 0 1 0 0 0 0 0.537255 0 0 0 0 0.160784 0 0 0 0.2 0"/>
<feBlend mode="normal" in2="effect1_backgroundBlur_37_277" result="effect2_dropShadow_37_277"/>
<feBlend mode="normal" in="SourceGraphic" in2="effect2_dropShadow_37_277" result="shape"/>
</filter>
<filter id="filter7_bd_37_277" x="242.861" y="255.456" width="66.3233" height="57.2206" filterUnits="userSpaceOnUse" color-interpolation-filters="sRGB">
<feFlood flood-opacity="0" result="BackgroundImageFix"/>
<feGaussianBlur in="BackgroundImage" stdDeviation="7.5"/>
<feComposite in2="SourceAlpha" operator="in" result="effect1_backgroundBlur_37_277"/>
<feColorMatrix in="SourceAlpha" type="matrix" values="0 0 0 0 0 0 0 0 0 0 0 0 0 0 0 0 0 0 127 0" result="hardAlpha"/>
<feOffset dx="5" dy="5"/>
<feGaussianBlur stdDeviation="5"/>
<feColorMatrix type="matrix" values="0 0 0 0 1 0 0 0 0 0.52549 0 0 0 0 0.137255 0 0 0 0.5 0"/>
<feBlend mode="normal" in2="effect1_backgroundBlur_37_277" result="effect2_dropShadow_37_277"/>
<feBlend mode="normal" in="SourceGraphic" in2="effect2_dropShadow_37_277" result="shape"/>
</filter>
<filter id="filter8_b_37_277" x="241.812" y="238" width="81.604" height="52.0867" filterUnits="userSpaceOnUse" color-interpolation-filters="sRGB">
<feFlood flood-opacity="0" result="BackgroundImageFix"/>
<feGaussianBlur in="BackgroundImage" stdDeviation="7.5"/>
<feComposite in2="SourceAlpha" operator="in" result="effect1_backgroundBlur_37_277"/>
<feBlend mode="normal" in="SourceGraphic" in2="effect1_backgroundBlur_37_277" result="shape"/>
</filter>
<filter id="filter9_dd_37_277" x="-17.491" y="65.4373" width="376.491" height="388.187" filterUnits="userSpaceOnUse" color-interpolation-filters="sRGB">
<feFlood flood-opacity="0" result="BackgroundImageFix"/>
<feColorMatrix in="SourceAlpha" type="matrix" values="0 0 0 0 0 0 0 0 0 0 0 0 0 0 0 0 0 0 127 0" result="hardAlpha"/>
<feOffset dy="1.12694"/>
<feGaussianBlur stdDeviation="4.69558"/>
<feColorMatrix type="matrix" values="0 0 0 0 0.509804 0 0 0 0 0.215686 0 0 0 0 1 0 0 0 0.15 0"/>
<feBlend mode="normal" in2="BackgroundImageFix" result="effect1_dropShadow_37_277"/>
<feColorMatrix in="SourceAlpha" type="matrix" values="0 0 0 0 0 0 0 0 0 0 0 0 0 0 0 0 0 0 127 0" result="hardAlpha"/>
<feOffset dy="9"/>
<feGaussianBlur stdDeviation="37.5"/>
<feColorMatrix type="matrix" values="0 0 0 0 0.509804 0 0 0 0 0.215686 0 0 0 0 1 0 0 0 0.3 0"/>
<feBlend mode="normal" in2="effect1_dropShadow_37_277" result="effect2_dropShadow_37_277"/>
<feBlend mode="normal" in="SourceGraphic" in2="effect2_dropShadow_37_277" result="shape"/>
</filter>
<filter id="filter10_f_37_277" x="60.185" y="135" width="177.582" height="190.647" filterUnits="userSpaceOnUse" color-interpolation-filters="sRGB">
<feFlood flood-opacity="0" result="BackgroundImageFix"/>
<feBlend mode="normal" in="SourceGraphic" in2="BackgroundImageFix" result="shape"/>
<feGaussianBlur stdDeviation="13.5" result="effect1_foregroundBlur_37_277"/>
</filter>
<filter id="filter11_b_37_277" x="89.8977" y="156.844" width="218.102" height="236.78" filterUnits="userSpaceOnUse" color-interpolation-filters="sRGB">
<feFlood flood-opacity="0" result="BackgroundImageFix"/>
<feGaussianBlur in="BackgroundImage" stdDeviation="12"/>
<feComposite in2="SourceAlpha" operator="in" result="effect1_backgroundBlur_37_277"/>
<feBlend mode="normal" in="SourceGraphic" in2="effect1_backgroundBlur_37_277" result="shape"/>
</filter>
<filter id="filter12_bd_37_277" x="139.215" y="210.274" width="118.627" height="129.615" filterUnits="userSpaceOnUse" color-interpolation-filters="sRGB">
<feFlood flood-opacity="0" result="BackgroundImageFix"/>
<feGaussianBlur in="BackgroundImage" stdDeviation="7.5"/>
<feComposite in2="SourceAlpha" operator="in" result="effect1_backgroundBlur_37_277"/>
<feColorMatrix in="SourceAlpha" type="matrix" values="0 0 0 0 0 0 0 0 0 0 0 0 0 0 0 0 0 0 127 0" result="hardAlpha"/>
<feOffset dx="5" dy="5"/>
<feGaussianBlur stdDeviation="5"/>
<feColorMatrix type="matrix" values="0 0 0 0 0.577356 0 0 0 0 0.359375 0 0 0 0 0.9375 0 0 0 0.5 0"/>
<feBlend mode="normal" in2="effect1_backgroundBlur_37_277" result="effect2_dropShadow_37_277"/>
<feBlend mode="normal" in="SourceGraphic" in2="effect2_dropShadow_37_277" result="shape"/>
</filter>
<filter id="filter13_f_37_277" x="41.3156" y="172.191" width="50.4366" height="50.3206" filterUnits="userSpaceOnUse" color-interpolation-filters="sRGB">
<feFlood flood-opacity="0" result="BackgroundImageFix"/>
<feBlend mode="normal" in="SourceGraphic" in2="BackgroundImageFix" result="shape"/>
<feGaussianBlur stdDeviation="7" result="effect1_foregroundBlur_37_277"/>
</filter>
<filter id="filter14_b_37_277" x="10.3974" y="153.732" width="87.9988" height="88.0782" filterUnits="userSpaceOnUse" color-interpolation-filters="sRGB">
<feFlood flood-opacity="0" result="BackgroundImageFix"/>
<feGaussianBlur in="BackgroundImage" stdDeviation="12"/>
<feComposite in2="SourceAlpha" operator="in" result="effect1_backgroundBlur_37_277"/>
<feBlend mode="normal" in="SourceGraphic" in2="effect1_backgroundBlur_37_277" result="shape"/>
</filter>
<filter id="filter15_bd_37_277" x="33.0994" y="178.251" width="44.6556" height="38.1545" filterUnits="userSpaceOnUse" color-interpolation-filters="sRGB">
<feFlood flood-opacity="0" result="BackgroundImageFix"/>
<feGaussianBlur in="BackgroundImage" stdDeviation="7.5"/>
<feComposite in2="SourceAlpha" operator="in" result="effect1_backgroundBlur_37_277"/>
<feColorMatrix in="SourceAlpha" type="matrix" values="0 0 0 0 0 0 0 0 0 0 0 0 0 0 0 0 0 0 127 0" result="hardAlpha"/>
<feOffset dx="5" dy="5"/>
<feGaussianBlur stdDeviation="5"/>
<feColorMatrix type="matrix" values="0 0 0 0 0.454902 0 0 0 0 0.870588 0 0 0 0 0.376471 0 0 0 0.5 0"/>
<feBlend mode="normal" in2="effect1_backgroundBlur_37_277" result="effect2_dropShadow_37_277"/>
<feBlend mode="normal" in="SourceGraphic" in2="effect2_dropShadow_37_277" result="shape"/>
</filter>
<filter id="filter16_f_37_277" x="75.7798" y="304.973" width="39.7648" height="43.1698" filterUnits="userSpaceOnUse" color-interpolation-filters="sRGB">
<feFlood flood-opacity="0" result="BackgroundImageFix"/>
<feBlend mode="normal" in="SourceGraphic" in2="BackgroundImageFix" result="shape"/>
<feGaussianBlur stdDeviation="7.5" result="effect1_foregroundBlur_37_277"/>
</filter>
<filter id="filter17_b_37_277" x="75.5111" y="289.778" width="63.0035" height="63.0065" filterUnits="userSpaceOnUse" color-interpolation-filters="sRGB">
<feFlood flood-opacity="0" result="BackgroundImageFix"/>
<feGaussianBlur in="BackgroundImage" stdDeviation="7.5"/>
<feComposite in2="SourceAlpha" operator="in" result="effect1_backgroundBlur_37_277"/>
<feBlend mode="normal" in="SourceGraphic" in2="effect1_backgroundBlur_37_277" result="shape"/>
</filter>
<filter id="filter18_b_37_277" x="95.0584" y="314.634" width="40.9798" height="39.5259" filterUnits="userSpaceOnUse" color-interpolation-filters="sRGB">
<feFlood flood-opacity="0" result="BackgroundImageFix"/>
<feGaussianBlur in="BackgroundImage" stdDeviation="7.5"/>
<feComposite in2="SourceAlpha" operator="in" result="effect1_backgroundBlur_37_277"/>
<feBlend mode="normal" in="SourceGraphic" in2="effect1_backgroundBlur_37_277" result="shape"/>
</filter>
<filter id="filter19_bd_37_277" x="87.9007" y="294.927" width="36.486" height="34.3802" filterUnits="userSpaceOnUse" color-interpolation-filters="sRGB">
<feFlood flood-opacity="0" result="BackgroundImageFix"/>
<feGaussianBlur in="BackgroundImage" stdDeviation="7.5"/>
<feComposite in2="SourceAlpha" operator="in" result="effect1_backgroundBlur_37_277"/>
<feColorMatrix in="SourceAlpha" type="matrix" values="0 0 0 0 0 0 0 0 0 0 0 0 0 0 0 0 0 0 127 0" result="hardAlpha"/>
<feOffset dx="5" dy="5"/>
<feGaussianBlur stdDeviation="5"/>
<feColorMatrix type="matrix" values="0 0 0 0 0.15375 0 0 0 0 0.522433 0 0 0 0 0.9 0 0 0 0.5 0"/>
<feBlend mode="normal" in2="effect1_backgroundBlur_37_277" result="effect2_dropShadow_37_277"/>
<feBlend mode="normal" in="SourceGraphic" in2="effect2_dropShadow_37_277" result="shape"/>
</filter>
<linearGradient id="paint0_linear_37_277" x1="225.712" y1="145.034" x2="218.727" y2="172.54" gradientUnits="userSpaceOnUse">
<stop stop-color="#FFA78F"/>
<stop offset="1" stop-color="#F23E2C"/>
</linearGradient>
<linearGradient id="paint1_linear_37_277" x1="218.515" y1="141.157" x2="221.112" y2="164.983" gradientUnits="userSpaceOnUse">
<stop stop-color="white" stop-opacity="0.25"/>
<stop offset="1" stop-color="white" stop-opacity="0"/>
</linearGradient>
<linearGradient id="paint2_linear_37_277" x1="223.029" y1="159.421" x2="209.23" y2="155.196" gradientUnits="userSpaceOnUse">
<stop stop-color="white"/>
<stop offset="1" stop-color="white" stop-opacity="0.2"/>
</linearGradient>
<linearGradient id="paint3_linear_37_277" x1="214.234" y1="154.204" x2="213.263" y2="156.44" gradientUnits="userSpaceOnUse">
<stop stop-color="white" stop-opacity="0.25"/>
<stop offset="1" stop-color="white" stop-opacity="0"/>
</linearGradient>
<linearGradient id="paint4_linear_37_277" x1="292.765" y1="234.521" x2="249.406" y2="281.485" gradientUnits="userSpaceOnUse">
<stop stop-color="#FFB37F"/>
<stop offset="1" stop-color="#FF7B0D"/>
</linearGradient>
<linearGradient id="paint5_linear_37_277" x1="267.64" y1="245.068" x2="289.323" y2="305.476" gradientUnits="userSpaceOnUse">
<stop stop-color="white" stop-opacity="0.25"/>
<stop offset="1" stop-color="white" stop-opacity="0"/>
</linearGradient>
<linearGradient id="paint6_linear_37_277" x1="299.998" y1="257.668" x2="304.93" y2="246.794" gradientUnits="userSpaceOnUse">
<stop stop-color="white"/>
<stop offset="1" stop-color="white" stop-opacity="0.2"/>
</linearGradient>
<linearGradient id="paint7_linear_37_277" x1="302.955" y1="247.046" x2="313.114" y2="255.728" gradientUnits="userSpaceOnUse">
<stop stop-color="white" stop-opacity="0.25"/>
<stop offset="1" stop-color="white" stop-opacity="0"/>
</linearGradient>
<linearGradient id="paint8_linear_37_277" x1="291.68" y1="283.472" x2="239.383" y2="260.485" gradientUnits="userSpaceOnUse">
<stop stop-color="white"/>
<stop offset="1" stop-color="white" stop-opacity="0.2"/>
</linearGradient>
<linearGradient id="paint9_linear_37_277" x1="267.618" y1="273.477" x2="269.081" y2="295.453" gradientUnits="userSpaceOnUse">
<stop stop-color="white" stop-opacity="0.25"/>
<stop offset="1" stop-color="white" stop-opacity="0"/>
</linearGradient>
<linearGradient id="paint10_linear_37_277" x1="270.84" y1="259.693" x2="271.092" y2="253.267" gradientUnits="userSpaceOnUse">
<stop stop-color="white"/>
<stop offset="1" stop-color="white" stop-opacity="0.2"/>
</linearGradient>
<linearGradient id="paint11_linear_37_277" x1="129.187" y1="143.754" x2="177.53" y2="324.17" gradientUnits="userSpaceOnUse">
<stop stop-color="#BC94FF"/>
<stop offset="1" stop-color="#9F66FF"/>
</linearGradient>
<linearGradient id="paint12_linear_37_277" x1="141.657" y1="203.604" x2="262.825" y2="338.667" gradientUnits="userSpaceOnUse">
<stop stop-color="white" stop-opacity="0.25"/>
<stop offset="1" stop-color="white" stop-opacity="0"/>
</linearGradient>
<linearGradient id="paint13_linear_37_277" x1="236.558" y1="243.263" x2="137.815" y2="246.127" gradientUnits="userSpaceOnUse">
<stop stop-color="white"/>
<stop offset="1" stop-color="white" stop-opacity="0.2"/>
</linearGradient>
<linearGradient id="paint14_linear_37_277" x1="168.323" y1="236.88" x2="233.021" y2="308.171" gradientUnits="userSpaceOnUse">
<stop stop-color="white" stop-opacity="0.25"/>
<stop offset="1" stop-color="white" stop-opacity="0"/>
</linearGradient>
<linearGradient id="paint15_linear_37_277" x1="85.5034" y1="197.147" x2="56.3185" y2="196.658" gradientUnits="userSpaceOnUse">
<stop stop-color="#9BF763"/>
<stop offset="1" stop-color="#26AB5B"/>
</linearGradient>
<linearGradient id="paint16_linear_37_277" x1="51.7336" y1="181.333" x2="55.4585" y2="214.073" gradientUnits="userSpaceOnUse">
<stop stop-color="white" stop-opacity="0.25"/>
<stop offset="1" stop-color="white" stop-opacity="0"/>
</linearGradient>
<linearGradient id="paint17_linear_37_277" x1="61.4132" y1="198.237" x2="47.5119" y2="190.25" gradientUnits="userSpaceOnUse">
<stop stop-color="white"/>
<stop offset="1" stop-color="white" stop-opacity="0.2"/>
</linearGradient>
<linearGradient id="paint18_linear_37_277" x1="50.56" y1="193.276" x2="60.8254" y2="199.906" gradientUnits="userSpaceOnUse">
<stop stop-color="white"/>
<stop offset="1" stop-color="white" stop-opacity="0"/>
</linearGradient>
<linearGradient id="paint19_linear_37_277" x1="103.46" y1="315.238" x2="84.7751" y2="337.349" gradientUnits="userSpaceOnUse">
<stop stop-color="#39AFFD"/>
<stop offset="1" stop-color="#477FFF"/>
</linearGradient>
<linearGradient id="paint20_linear_37_277" x1="99.8962" y1="337.329" x2="97.3526" y2="343.597" gradientUnits="userSpaceOnUse">
<stop stop-color="#39AFFD"/>
<stop offset="1" stop-color="#477FFF"/>
</linearGradient>
<linearGradient id="paint21_linear_37_277" x1="90.3226" y1="316.863" x2="118.45" y2="325.4" gradientUnits="userSpaceOnUse">
<stop stop-color="white" stop-opacity="0.25"/>
<stop offset="1" stop-color="white" stop-opacity="0"/>
</linearGradient>
<linearGradient id="paint22_linear_37_277" x1="112.024" y1="335.402" x2="117.185" y2="338.694" gradientUnits="userSpaceOnUse">
<stop stop-color="white" stop-opacity="0.25"/>
<stop offset="1" stop-color="white" stop-opacity="0"/>
</linearGradient>
<linearGradient id="paint23_linear_37_277" x1="107.851" y1="309.846" x2="108.396" y2="315.188" gradientUnits="userSpaceOnUse">
<stop stop-color="white"/>
<stop offset="1" stop-color="white" stop-opacity="0.2"/>
</linearGradient>
<linearGradient id="paint24_linear_37_277" x1="107.397" y1="313.893" x2="106.862" y2="309.837" gradientUnits="userSpaceOnUse">
<stop stop-color="white"/>
<stop offset="1" stop-color="white" stop-opacity="0"/>
</linearGradient>
</defs>
</svg>
