<svg width="48" height="48" viewBox="0 0 48 48" fill="none" xmlns="http://www.w3.org/2000/svg">
<path d="M45.12 24.5C45.12 22.94 44.98 21.44 44.72 20H24V28.51H35.84C35.33 31.26 33.78 33.59 31.45 35.15V40.67H38.56C42.72 36.84 45.12 31.2 45.12 24.5V24.5Z" fill="#4285F4"/>
<path d="M24 45.9999C29.94 45.9999 34.92 44.0299 38.56 40.6699L31.45 35.1499C29.48 36.4699 26.96 37.2499 24 37.2499C18.27 37.2499 13.42 33.3799 11.69 28.1799H4.33997V33.8799C7.95997 41.0699 15.4 45.9999 24 45.9999Z" fill="#34A853"/>
<path d="M11.69 28.1801C11.25 26.8601 11 25.4501 11 24.0001C11 22.5501 11.25 21.1401 11.69 19.8201V14.1201H4.34C2.85 17.0901 2 20.4501 2 24.0001C2 27.5501 2.85 30.9101 4.34 33.8801L11.69 28.1801V28.1801Z" fill="#FBBC05"/>
<path d="M24 10.75C27.23 10.75 30.13 11.86 32.41 14.04L38.72 7.73C34.91 4.18 29.93 2 24 2C15.4 2 7.95997 6.93 4.33997 14.12L11.69 19.82C13.42 14.62 18.27 10.75 24 10.75Z" fill="#EA4335"/>
</svg>
