<svg width="60" height="77" viewBox="0 0 60 77" fill="none" xmlns="http://www.w3.org/2000/svg">
<rect width="60" height="77" fill="#0D0D0D"/>
<path fill-rule="evenodd" clip-rule="evenodd" d="M30 22.7388L37.9 28.3153V40.4044H33.5V30.6044V30.0044H32.9H27.1H26.5V30.6044V40.4044H22.1V28.3153L30 22.7388ZM27.1 40.4044H32.9V30.6044H27.1V40.4044ZM26.5 41.0044H22.1H21.5V40.4044V28.0044L30 22.0044L38.5 28.0044V40.4044V41.0044H37.9H33.5H32.9H27.1H26.5Z" fill="#8A8A8A"/>
<path d="M17.255 51.017H16.655V52.8571L17.7397 51.3707L17.255 51.017ZM17.255 48.3H17.855V47.7H17.255V48.3ZM15.605 48.3V47.7H15.005V48.3H15.605ZM15.605 56H15.005V56.6H15.605V56ZM17.255 56V56.6H17.855V56H17.255ZM19.235 56H18.635V56.6H19.235V56ZM20.885 56V56.6H21.485V56H20.885ZM18.828 49.746C17.9627 49.746 17.2079 50.0636 16.7703 50.6633L17.7397 51.3707C17.8961 51.1564 18.2413 50.946 18.828 50.946V49.746ZM17.855 51.017V48.3H16.655V51.017H17.855ZM17.255 47.7H15.605V48.9H17.255V47.7ZM15.005 48.3V56H16.205V48.3H15.005ZM15.605 56.6H17.255V55.4H15.605V56.6ZM17.855 56V52.997H16.655V56H17.855ZM17.855 52.997C17.855 52.7099 17.9305 52.5963 17.9702 52.5555C18.0082 52.5163 18.0905 52.464 18.278 52.464V51.264C17.8605 51.264 17.4313 51.3877 17.109 51.7198C16.7885 52.0502 16.655 52.5031 16.655 52.997H17.855ZM18.278 52.464C18.4241 52.464 18.5027 52.507 18.5407 52.5432C18.5726 52.5736 18.635 52.6545 18.635 52.865H19.835C19.835 52.3935 19.6829 51.9739 19.3683 51.6743C19.0598 51.3805 18.6599 51.264 18.278 51.264V52.464ZM18.635 52.865V56H19.835V52.865H18.635ZM19.235 56.6H20.885V55.4H19.235V56.6ZM21.485 56V52.623H20.285V56H21.485ZM21.485 52.623C21.485 51.7494 21.2039 51.0209 20.702 50.508C20.2022 49.9972 19.5276 49.746 18.828 49.746V50.946C19.2394 50.946 19.5933 51.0908 19.8443 51.3473C20.0931 51.6016 20.285 52.0116 20.285 52.623H21.485ZM24.8581 56.754C26.8005 56.754 28.3731 55.2263 28.3731 53.25H27.1731C27.1731 54.5517 26.1497 55.554 24.8581 55.554V56.754ZM28.3731 53.25C28.3731 51.2737 26.8005 49.746 24.8581 49.746V50.946C26.1497 50.946 27.1731 51.9483 27.1731 53.25H28.3731ZM24.8581 49.746C22.9157 49.746 21.3431 51.2737 21.3431 53.25H22.5431C22.5431 51.9483 23.5665 50.946 24.8581 50.946V49.746ZM21.3431 53.25C21.3431 55.2263 22.9157 56.754 24.8581 56.754V55.554C23.5665 55.554 22.5431 54.5517 22.5431 53.25H21.3431ZM24.8581 53.948C24.4745 53.948 24.1931 53.6996 24.1931 53.25H22.9931C22.9931 54.3624 23.8117 55.148 24.8581 55.148V53.948ZM24.1931 53.25C24.1931 52.8004 24.4745 52.552 24.8581 52.552V51.352C23.8117 51.352 22.9931 52.1376 22.9931 53.25H24.1931ZM24.8581 52.552C25.2417 52.552 25.5231 52.8004 25.5231 53.25H26.7231C26.7231 52.1376 25.9045 51.352 24.8581 51.352V52.552ZM25.5231 53.25C25.5231 53.6996 25.2417 53.948 24.8581 53.948V55.148C25.9045 55.148 26.7231 54.3624 26.7231 53.25H25.5231ZM33.4714 51.072L32.9721 51.4048L33.4593 52.1355L33.9629 51.4161L33.4714 51.072ZM30.5564 51.006H29.9564V52.9638L31.0533 51.3422L30.5564 51.006ZM30.5564 50.5H31.1564V49.9H30.5564V50.5ZM28.9064 50.5V49.9H28.3064V50.5H28.9064ZM28.9064 56H28.3064V56.6H28.9064V56ZM30.5564 56V56.6H31.1564V56H30.5564ZM32.2064 56H31.6064V56.6H32.2064V56ZM33.8564 56V56.6H34.4564V56H33.8564ZM35.5064 56H34.9064V56.6H35.5064V56ZM37.1564 56V56.6H37.7564V56H37.1564ZM35.0664 49.746C34.1185 49.746 33.4157 50.1052 32.9798 50.7279L33.9629 51.4161C34.143 51.1588 34.4522 50.946 35.0664 50.946V49.746ZM33.9706 50.7392C33.5432 50.0981 32.8649 49.746 32.0304 49.746V50.946C32.4939 50.946 32.7835 51.1219 32.9721 51.4048L33.9706 50.7392ZM32.0304 49.746C31.1298 49.746 30.4426 50.1034 30.0594 50.6698L31.0533 51.3422C31.1762 51.1606 31.457 50.946 32.0304 50.946V49.746ZM31.1564 51.006V50.5H29.9564V51.006H31.1564ZM30.5564 49.9H28.9064V51.1H30.5564V49.9ZM28.3064 50.5V56H29.5064V50.5H28.3064ZM28.9064 56.6H30.5564V55.4H28.9064V56.6ZM31.1564 56V52.898H29.9564V56H31.1564ZM31.1564 52.898C31.1564 52.6594 31.2138 52.5537 31.2427 52.5185C31.2577 52.5003 31.2906 52.464 31.4144 52.464V51.264C30.9881 51.264 30.5921 51.4202 30.3155 51.7567C30.0529 52.0763 29.9564 52.4876 29.9564 52.898H31.1564ZM31.4144 52.464C31.4799 52.464 31.5144 52.4748 31.5285 52.4808C31.5405 52.4858 31.5451 52.4901 31.5494 52.4952C31.5604 52.5083 31.6064 52.5778 31.6064 52.766H32.8064C32.8064 52.4042 32.7203 52.0227 32.4673 51.7223C32.2008 51.4057 31.8207 51.264 31.4144 51.264V52.464ZM31.6064 52.766V56H32.8064V52.766H31.6064ZM32.2064 56.6H33.8564V55.4H32.2064V56.6ZM34.4564 56V52.898H33.2564V56H34.4564ZM34.4564 52.898C34.4564 52.6594 34.5138 52.5537 34.5427 52.5185C34.5577 52.5003 34.5906 52.464 34.7144 52.464V51.264C34.2881 51.264 33.8921 51.4202 33.6155 51.7567C33.3529 52.0763 33.2564 52.4876 33.2564 52.898H34.4564ZM34.7144 52.464C34.7799 52.464 34.8144 52.4748 34.8285 52.4808C34.8405 52.4858 34.8451 52.4901 34.8494 52.4952C34.8604 52.5083 34.9064 52.5778 34.9064 52.766H36.1064C36.1064 52.4042 36.0203 52.0227 35.7673 51.7223C35.5008 51.4057 35.1207 51.264 34.7144 51.264V52.464ZM34.9064 52.766V56H36.1064V52.766H34.9064ZM35.5064 56.6H37.1564V55.4H35.5064V56.6ZM37.7564 56V52.623H36.5564V56H37.7564ZM37.7564 52.623C37.7564 51.8166 37.5132 51.0925 37.028 50.5634C36.5381 50.0291 35.8486 49.746 35.0664 49.746V50.946C35.5491 50.946 35.9046 51.1139 36.1435 51.3744C36.3871 51.64 36.5564 52.0544 36.5564 52.623H37.7564ZM39.9583 53.91V53.31H39.1003L39.3947 54.1159L39.9583 53.91ZM43.8633 53.91V54.51H44.3501L44.4504 54.0336L43.8633 53.91ZM43.6543 55.021L44.1411 55.3718L44.5298 54.8323L43.9534 54.5009L43.6543 55.021ZM42.3343 54.262L42.6334 53.7419L42.215 53.5013L41.8903 53.8584L42.3343 54.262ZM39.9253 52.678L39.3467 52.5192L39.1384 53.278H39.9253V52.678ZM42.2903 52.678V53.278H43.0782L42.8687 52.5184L42.2903 52.678ZM39.9583 54.51H43.8633V53.31H39.9583V54.51ZM44.4504 54.0336C44.5036 53.7808 44.5293 53.5192 44.5293 53.25H43.3293C43.3293 53.4428 43.3109 53.6212 43.2762 53.7864L44.4504 54.0336ZM44.5293 53.25C44.5293 51.2808 43.0954 49.746 41.1353 49.746V50.946C42.3872 50.946 43.3293 51.8972 43.3293 53.25H44.5293ZM41.1353 49.746C39.0584 49.746 37.6093 51.2872 37.6093 53.25H38.8093C38.8093 51.9348 39.7362 50.946 41.1353 50.946V49.746ZM37.6093 53.25C37.6093 54.2146 37.9546 55.0991 38.6054 55.7431C39.2575 56.3884 40.1772 56.754 41.2563 56.754V55.554C40.4544 55.554 39.8506 55.2871 39.4495 54.8901C39.047 54.4919 38.8093 53.9244 38.8093 53.25H37.6093ZM41.2563 56.754C42.4648 56.754 43.4732 56.2987 44.1411 55.3718L43.1675 54.6702C42.7574 55.2393 42.1378 55.554 41.2563 55.554V56.754ZM43.9534 54.5009L42.6334 53.7419L42.0352 54.7821L43.3552 55.5411L43.9534 54.5009ZM41.8903 53.8584C41.7986 53.9593 41.5832 54.08 41.2783 54.08V55.28C41.8754 55.28 42.43 55.0487 42.7783 54.6656L41.8903 53.8584ZM41.2783 54.08C41.0344 54.08 40.8634 54.039 40.7508 53.9794C40.6536 53.9278 40.5755 53.8508 40.5219 53.7041L39.3947 54.1159C39.5501 54.5412 39.8295 54.8492 40.1888 55.0396C40.5327 55.222 40.9172 55.28 41.2783 55.28V54.08ZM40.5039 52.8368C40.5506 52.6668 40.6246 52.5735 40.7005 52.5182C40.7792 52.461 40.9092 52.409 41.1243 52.409V51.209C40.7124 51.209 40.3199 51.311 39.9943 51.548C39.666 51.787 39.454 52.1282 39.3467 52.5192L40.5039 52.8368ZM41.1243 52.409C41.2823 52.409 41.4075 52.4461 41.4956 52.5045C41.5746 52.5568 41.6598 52.6489 41.7119 52.8376L42.8687 52.5184C42.7447 52.0691 42.4945 51.7267 42.1582 51.504C41.8311 51.2874 41.4613 51.209 41.1243 51.209V52.409ZM42.2903 52.078H39.9253V53.278H42.2903V52.078Z" fill="#8A8A8A"/>
</svg>
