<svg width="60" height="77" viewBox="0 0 60 77" fill="none" xmlns="http://www.w3.org/2000/svg">
<rect width="60" height="77" fill="#0D0D0D"/>
<path fill-rule="evenodd" clip-rule="evenodd" d="M21.6 23.6H38.4V40.4H21.6V23.6ZM21 23H21.6H38.4H39V23.6V40.4V41H38.4H21.6H21V40.4V23.6V23ZM25.9695 34.759L30 30.7285L34.0305 34.759L34.4547 34.3347L30.2121 30.0921L30 29.88L29.7878 30.0921L25.5452 34.3347L25.9695 34.759Z" fill="#8A8A8A"/>
<path d="M21.67 51.072L21.1708 51.4048L21.6579 52.1355L22.1615 51.4161L21.67 51.072ZM18.755 51.006H18.155V52.9638L19.252 51.3422L18.755 51.006ZM18.755 50.5H19.355V49.9H18.755V50.5ZM17.105 50.5V49.9H16.505V50.5H17.105ZM17.105 56H16.505V56.6H17.105V56ZM18.755 56V56.6H19.355V56H18.755ZM20.405 56H19.805V56.6H20.405V56ZM22.055 56V56.6H22.655V56H22.055ZM23.705 56H23.105V56.6H23.705V56ZM25.355 56V56.6H25.955V56H25.355ZM23.265 49.746C22.3171 49.746 21.6144 50.1052 21.1785 50.7279L22.1615 51.4161C22.3416 51.1588 22.6509 50.946 23.265 50.946V49.746ZM22.1692 50.7392C21.7418 50.0981 21.0635 49.746 20.229 49.746V50.946C20.6925 50.946 20.9822 51.1219 21.1708 51.4048L22.1692 50.7392ZM20.229 49.746C19.3284 49.746 18.6412 50.1034 18.258 50.6698L19.252 51.3422C19.3748 51.1606 19.6556 50.946 20.229 50.946V49.746ZM19.355 51.006V50.5H18.155V51.006H19.355ZM18.755 49.9H17.105V51.1H18.755V49.9ZM16.505 50.5V56H17.705V50.5H16.505ZM17.105 56.6H18.755V55.4H17.105V56.6ZM19.355 56V52.898H18.155V56H19.355ZM19.355 52.898C19.355 52.6594 19.4124 52.5537 19.4413 52.5185C19.4563 52.5003 19.4893 52.464 19.613 52.464V51.264C19.1868 51.264 18.7907 51.4202 18.5142 51.7567C18.2516 52.0763 18.155 52.4876 18.155 52.898H19.355ZM19.613 52.464C19.6785 52.464 19.713 52.4748 19.7271 52.4808C19.7391 52.4858 19.7438 52.4901 19.7481 52.4952C19.7591 52.5083 19.805 52.5778 19.805 52.766H21.005C21.005 52.4042 20.9189 52.0227 20.6659 51.7223C20.3994 51.4057 20.0194 51.264 19.613 51.264V52.464ZM19.805 52.766V56H21.005V52.766H19.805ZM20.405 56.6H22.055V55.4H20.405V56.6ZM22.655 56V52.898H21.455V56H22.655ZM22.655 52.898C22.655 52.6594 22.7124 52.5537 22.7413 52.5185C22.7563 52.5003 22.7893 52.464 22.913 52.464V51.264C22.4868 51.264 22.0907 51.4202 21.8142 51.7567C21.5516 52.0763 21.455 52.4876 21.455 52.898H22.655ZM22.913 52.464C22.9785 52.464 23.013 52.4748 23.0271 52.4808C23.0391 52.4858 23.0438 52.4901 23.0481 52.4952C23.0591 52.5083 23.105 52.5778 23.105 52.766H24.305C24.305 52.4042 24.2189 52.0227 23.9659 51.7223C23.6994 51.4057 23.3194 51.264 22.913 51.264V52.464ZM23.105 52.766V56H24.305V52.766H23.105ZM23.705 56.6H25.355V55.4H23.705V56.6ZM25.955 56V52.623H24.755V56H25.955ZM25.955 52.623C25.955 51.8166 25.7118 51.0925 25.2266 50.5634C24.7367 50.0291 24.0473 49.746 23.265 49.746V50.946C23.7477 50.946 24.1033 51.1139 24.3421 51.3744C24.5857 51.64 24.755 52.0544 24.755 52.623H25.955ZM29.3229 56.754C31.2653 56.754 32.8379 55.2263 32.8379 53.25H31.6379C31.6379 54.5517 30.6145 55.554 29.3229 55.554V56.754ZM32.8379 53.25C32.8379 51.2737 31.2653 49.746 29.3229 49.746V50.946C30.6145 50.946 31.6379 51.9483 31.6379 53.25H32.8379ZM29.3229 49.746C27.3805 49.746 25.8079 51.2737 25.8079 53.25H27.0079C27.0079 51.9483 28.0313 50.946 29.3229 50.946V49.746ZM25.8079 53.25C25.8079 55.2263 27.3805 56.754 29.3229 56.754V55.554C28.0313 55.554 27.0079 54.5517 27.0079 53.25H25.8079ZM29.3229 53.948C28.9393 53.948 28.6579 53.6996 28.6579 53.25H27.4579C27.4579 54.3624 28.2766 55.148 29.3229 55.148V53.948ZM28.6579 53.25C28.6579 52.8004 28.9393 52.552 29.3229 52.552V51.352C28.2766 51.352 27.4579 52.1376 27.4579 53.25H28.6579ZM29.3229 52.552C29.7066 52.552 29.9879 52.8004 29.9879 53.25H31.1879C31.1879 52.1376 30.3693 51.352 29.3229 51.352V52.552ZM29.9879 53.25C29.9879 53.6996 29.7066 53.948 29.3229 53.948V55.148C30.3693 55.148 31.1879 54.3624 31.1879 53.25H29.9879ZM35.0212 51.479H34.4212L35.5961 51.6506L35.0212 51.479ZM35.0212 50.5H35.6212V49.9H35.0212V50.5ZM33.3712 50.5V49.9H32.7712V50.5H33.3712ZM33.3712 56H32.7712V56.6H33.3712V56ZM35.0212 56V56.6H35.6212V56H35.0212ZM36.6712 52.26L36.5757 52.8523L37.2712 52.9645V52.26H36.6712ZM36.6712 50.39H37.2712V49.79H36.6712V50.39ZM35.6212 51.479V50.5H34.4212V51.479H35.6212ZM35.0212 49.9H33.3712V51.1H35.0212V49.9ZM32.7712 50.5V56H33.9712V50.5H32.7712ZM33.3712 56.6H35.0212V55.4H33.3712V56.6ZM35.6212 56V53.514H34.4212V56H35.6212ZM35.6212 53.514C35.6212 53.1816 35.751 53.0384 35.8931 52.9555C36.0732 52.8503 36.3375 52.8139 36.5757 52.8523L36.7668 51.6677C36.3229 51.5961 35.7622 51.6422 35.2879 51.9193C34.7754 52.2186 34.4212 52.7574 34.4212 53.514H35.6212ZM37.2712 52.26V50.39H36.0712V52.26H37.2712ZM36.6712 49.79C35.8161 49.79 34.768 50.2295 34.4463 51.3074L35.5961 51.6506C35.7144 51.2545 36.1403 50.99 36.6712 50.99V49.79ZM38.9554 53.91V53.31H38.0973L38.3918 54.1159L38.9554 53.91ZM42.8604 53.91V54.51H43.3472L43.4475 54.0336L42.8604 53.91ZM42.6514 55.021L43.1382 55.3718L43.5269 54.8323L42.9505 54.5009L42.6514 55.021ZM41.3314 54.262L41.6305 53.7419L41.2121 53.5013L40.8874 53.8584L41.3314 54.262ZM38.9224 52.678L38.3438 52.5192L38.1355 53.278H38.9224V52.678ZM41.2874 52.678V53.278H42.0753L41.8658 52.5184L41.2874 52.678ZM38.9554 54.51H42.8604V53.31H38.9554V54.51ZM43.4475 54.0336C43.5007 53.7808 43.5264 53.5192 43.5264 53.25H42.3264C42.3264 53.4428 42.308 53.6212 42.2732 53.7864L43.4475 54.0336ZM43.5264 53.25C43.5264 51.2808 42.0925 49.746 40.1324 49.746V50.946C41.3843 50.946 42.3264 51.8972 42.3264 53.25H43.5264ZM40.1324 49.746C38.0555 49.746 36.6064 51.2872 36.6064 53.25H37.8064C37.8064 51.9348 38.7332 50.946 40.1324 50.946V49.746ZM36.6064 53.25C36.6064 54.2146 36.9516 55.0991 37.6025 55.7431C38.2545 56.3884 39.1743 56.754 40.2534 56.754V55.554C39.4514 55.554 38.8477 55.2871 38.4465 54.8901C38.0441 54.4919 37.8064 53.9244 37.8064 53.25H36.6064ZM40.2534 56.754C41.4619 56.754 42.4702 56.2987 43.1382 55.3718L42.1646 54.6702C41.7545 55.2393 41.1348 55.554 40.2534 55.554V56.754ZM42.9505 54.5009L41.6305 53.7419L41.0323 54.7821L42.3523 55.5411L42.9505 54.5009ZM40.8874 53.8584C40.7957 53.9593 40.5803 54.08 40.2754 54.08V55.28C40.8725 55.28 41.427 55.0487 41.7753 54.6656L40.8874 53.8584ZM40.2754 54.08C40.0315 54.08 39.8604 54.039 39.7479 53.9794C39.6506 53.9278 39.5725 53.8508 39.5189 53.7041L38.3918 54.1159C38.5472 54.5412 38.8266 54.8492 39.1858 55.0396C39.5298 55.222 39.9143 55.28 40.2754 55.28V54.08ZM39.501 52.8368C39.5476 52.6668 39.6217 52.5735 39.6976 52.5182C39.7763 52.461 39.9063 52.409 40.1214 52.409V51.209C39.7095 51.209 39.317 51.311 38.9914 51.548C38.6631 51.787 38.4511 52.1282 38.3438 52.5192L39.501 52.8368ZM40.1214 52.409C40.2794 52.409 40.4046 52.4461 40.4927 52.5045C40.5717 52.5568 40.6569 52.6489 40.709 52.8376L41.8658 52.5184C41.7418 52.0691 41.4916 51.7267 41.1553 51.504C40.8282 51.2874 40.4583 51.209 40.1214 51.209V52.409ZM41.2874 52.078H38.9224V53.278H41.2874V52.078Z" fill="#8A8A8A"/>
</svg>
