<svg width="26" height="30" viewBox="0 0 26 30" fill="none" xmlns="http://www.w3.org/2000/svg">
<path d="M25.6379 30H15.8459L9.79788 18.24H9.46188V30H0.341875V0.191998H10.4699L16.1339 12.336H16.4219V0.191998H25.6379V30Z" fill="#FFDBA1"/>
<path d="M25.6379 30V31H26.6379V30H25.6379ZM15.8459 30L14.9566 30.4573L15.2357 31H15.8459V30ZM9.79788 18.24L10.6872 17.7827L10.4081 17.24H9.79788V18.24ZM9.46188 18.24V17.24H8.46188V18.24H9.46188ZM9.46188 30V31H10.4619V30H9.46188ZM0.341875 30H-0.658125V31H0.341875V30ZM0.341875 0.191998V-0.808002H-0.658125V0.191998H0.341875ZM10.4699 0.191998L11.3762 -0.230692L11.1069 -0.808002H10.4699V0.191998ZM16.1339 12.336L15.2276 12.7587L15.4969 13.336H16.1339V12.336ZM16.4219 12.336V13.336H17.4219V12.336H16.4219ZM16.4219 0.191998V-0.808002H15.4219V0.191998H16.4219ZM25.6379 0.191998H26.6379V-0.808002H25.6379V0.191998ZM25.6379 29H15.8459V31H25.6379V29ZM16.7352 29.5427L10.6872 17.7827L8.90859 18.6973L14.9566 30.4573L16.7352 29.5427ZM9.79788 17.24H9.46188V19.24H9.79788V17.24ZM8.46188 18.24V30H10.4619V18.24H8.46188ZM9.46188 29H0.341875V31H9.46188V29ZM1.34188 30V0.191998H-0.658125V30H1.34188ZM0.341875 1.192H10.4699V-0.808002H0.341875V1.192ZM9.5636 0.614687L15.2276 12.7587L17.0402 11.9133L11.3762 -0.230692L9.5636 0.614687ZM16.1339 13.336H16.4219V11.336H16.1339V13.336ZM17.4219 12.336V0.191998H15.4219V12.336H17.4219ZM16.4219 1.192H25.6379V-0.808002H16.4219V1.192ZM24.6379 0.191998V30H26.6379V0.191998H24.6379Z" fill="#141414"/>
</svg>
