<svg width="68" height="19" viewBox="0 0 68 19" fill="none" xmlns="http://www.w3.org/2000/svg">
    <path d="M17.332 18V5.688C17.332 2.484 15.532 0.179999 11.572 0.179999C8.656 0.179999 6.604 1.512 5.56 2.736V0.612H0.0160001V18H5.56V6.768C6.208 5.976 7.288 5.076 8.944 5.076C10.672 5.076 11.788 5.832 11.788 7.956V18H17.332ZM26.5878 18.288C30.5718 18.288 32.9238 15.456 32.9238 12.192C32.9238 8.928 30.5718 6.12 26.5878 6.12C22.6518 6.12 20.2758 8.928 20.2758 12.192C20.2758 15.456 22.6518 18.288 26.5878 18.288ZM26.5878 15.024C24.9798 15.024 24.0918 13.752 24.0918 12.192C24.0918 10.656 24.9798 9.384 26.5878 9.384C28.2198 9.384 29.1318 10.656 29.1318 12.192C29.1318 13.752 28.2198 15.024 26.5878 15.024ZM39.504 18.288C40.872 18.288 41.784 17.952 42.24 17.52L41.52 14.736C41.4 14.88 40.992 15.024 40.584 15.024C39.936 15.024 39.552 14.52 39.552 13.848V9.624H41.904V6.408H39.552V3.24H35.88V6.408H33.96V9.624H35.88V14.88C35.88 17.112 37.152 18.288 39.504 18.288ZM49.5684 18.288C51.3444 18.288 53.2644 17.784 54.4164 16.752L52.8564 14.448C52.2084 15.072 50.7924 15.432 49.9764 15.432C48.2964 15.432 47.2884 14.448 47.0724 13.368H55.3284V12.576C55.3284 8.64 52.8324 6.12 49.4004 6.12C45.7764 6.12 43.2324 8.832 43.2324 12.192C43.2324 15.96 45.9924 18.288 49.5684 18.288ZM51.8004 10.968H47.0244C47.1684 10.128 47.7924 8.976 49.4004 8.976C51.1044 8.976 51.7044 10.152 51.8004 10.968ZM61.8288 18.288C65.1648 18.288 67.1088 16.656 67.1088 14.448C67.1088 9.696 60.3648 11.016 60.3648 9.672C60.3648 9.192 60.9648 8.832 61.8288 8.832C63.2208 8.832 64.5408 9.432 65.2368 10.104L66.6528 7.656C65.4048 6.744 63.7488 6.12 61.8048 6.12C58.5888 6.12 56.8368 7.896 56.8368 9.936C56.8368 14.592 63.5808 13.104 63.5808 14.616C63.5808 15.144 63.1248 15.504 62.0208 15.504C60.6528 15.504 58.8048 14.736 57.9408 13.968L56.4048 16.512C57.6288 17.592 59.7648 18.288 61.8288 18.288Z" fill="white" />
</svg>