<svg width="60" height="77" viewBox="0 0 60 77" fill="none" xmlns="http://www.w3.org/2000/svg">
<rect width="60" height="77" fill="#0D0D0D"/>
<path fill-rule="evenodd" clip-rule="evenodd" d="M29.9997 22.2533C32.725 22.2533 34.9607 24.3503 35.1815 27.0188H24.8179C25.0387 24.3503 27.2743 22.2533 29.9997 22.2533ZM38.3955 27.0188H35.7833C35.5611 24.0186 33.0566 21.6533 29.9997 21.6533C26.9428 21.6533 24.4383 24.0186 24.216 27.0188H21.6044H21.0044V27.6188V30.919V31.519H21.6044H22V31.6188V40.401V41.001H22.6H37.4H38V40.401V31.6188V31.519H38.3955H38.9955V30.919V27.6188V27.0188H38.3955ZM21.6044 27.6188H38.3955V30.919H21.6044V27.6188ZM22.6 31.6188H37.4V40.401H22.6V31.6188ZM35 37.0188H31V37.5188H35V37.0188Z" fill="#8A8A8A"/>
<path d="M20.366 52.282L19.8377 52.5665L20.1223 53.095L20.6507 52.8102L20.366 52.282ZM21.774 51.523L22.0587 52.0512L22.6083 51.7549L22.2904 51.2175L21.774 51.523ZM18.65 54.031L19.2177 53.8368L18.9831 53.151L18.3532 53.5096L18.65 54.031ZM17.22 54.845L16.9232 54.3236L16.4364 54.6006L16.6794 55.1053L17.22 54.845ZM19.767 52.106C19.767 52.148 19.7569 52.2049 19.7248 52.2633C19.693 52.3211 19.6517 52.3585 19.6196 52.3796C19.5651 52.4153 19.5498 52.398 19.629 52.398V51.198C19.4222 51.198 19.1759 51.2357 18.9619 51.3759C18.7184 51.5354 18.567 51.7983 18.567 52.106H19.767ZM19.629 52.398C19.6926 52.398 19.7152 52.4125 19.7277 52.4214C19.7488 52.4364 19.7881 52.4743 19.8377 52.5665L20.8943 51.9975C20.7899 51.8037 20.6422 51.5996 20.4241 51.4441C20.1973 51.2825 19.9284 51.198 19.629 51.198V52.398ZM20.6507 52.8102L22.0587 52.0512L21.4893 50.9948L20.0813 51.7538L20.6507 52.8102ZM22.2904 51.2175C21.7082 50.2334 20.707 49.746 19.629 49.746V50.946C20.333 50.946 20.9158 51.2506 21.2576 51.8285L22.2904 51.2175ZM19.629 49.746C18.9599 49.746 18.2834 49.9218 17.7588 50.3208C17.2162 50.7334 16.873 51.3598 16.873 52.15H18.073C18.073 51.7412 18.2358 51.4656 18.4852 51.276C18.7526 51.0727 19.1541 50.946 19.629 50.946V49.746ZM16.873 52.15C16.873 52.789 17.1085 53.2805 17.4771 53.6395C17.825 53.9785 18.2621 54.1712 18.6301 54.2984C18.8177 54.3632 19.002 54.4156 19.1613 54.4602C19.3282 54.5068 19.4572 54.542 19.5658 54.5783C19.6817 54.6171 19.7161 54.6391 19.7138 54.6374C19.7005 54.6279 19.579 54.5297 19.579 54.339H20.779C20.779 53.997 20.573 53.7765 20.4117 53.6612C20.2614 53.5537 20.0844 53.4865 19.9466 53.4404C19.8015 53.3918 19.6345 53.3464 19.4843 53.3044C19.3265 53.2603 19.1725 53.2162 19.0219 53.1641C18.7134 53.0575 18.474 52.9354 18.3145 52.78C18.1757 52.6448 18.073 52.4625 18.073 52.15H16.873ZM19.579 54.339C19.579 54.3012 19.5885 54.2428 19.6241 54.182C19.6592 54.1219 19.7028 54.0885 19.7282 54.0737C19.7504 54.0608 19.7554 54.0637 19.7277 54.0692C19.701 54.0745 19.655 54.08 19.585 54.08V55.28C19.8263 55.28 20.0998 55.2462 20.3328 55.1103C20.6095 54.9488 20.779 54.6699 20.779 54.339H19.579ZM19.585 54.08C19.4398 54.08 19.3701 54.0464 19.3363 54.0225C19.3031 53.999 19.2568 53.951 19.2177 53.8368L18.0823 54.2252C18.1862 54.529 18.3654 54.8055 18.6429 55.002C18.9199 55.1981 19.2462 55.28 19.585 55.28V54.08ZM18.3532 53.5096L16.9232 54.3236L17.5168 55.3664L18.9468 54.5524L18.3532 53.5096ZM16.6794 55.1053C17.2341 56.2574 18.3204 56.754 19.585 56.754V55.554C18.6496 55.554 18.0639 55.2146 17.7606 54.5847L16.6794 55.1053ZM19.585 56.754C20.2577 56.754 20.9615 56.6032 21.5158 56.2199C22.0964 55.8184 22.473 55.1854 22.473 54.35H21.273C21.273 54.7796 21.0996 55.0486 20.8332 55.2329C20.5405 55.4353 20.1003 55.554 19.585 55.554V56.754ZM22.473 54.35C22.473 53.6907 22.2467 53.1815 21.877 52.8073C21.5264 52.4525 21.0843 52.2571 20.7118 52.1315C20.5223 52.0675 20.3366 52.0172 20.1765 51.9749C20.0082 51.9304 19.8803 51.8978 19.7719 51.8633C19.6561 51.8264 19.6251 51.8058 19.6307 51.8098C19.6523 51.8251 19.767 51.9239 19.767 52.106H18.567C18.567 52.4448 18.7663 52.6677 18.9358 52.7882C19.0895 52.8973 19.2699 52.9628 19.4078 53.0067C19.553 53.0529 19.7211 53.0958 19.8699 53.1351C20.0269 53.1766 20.1795 53.2183 20.3282 53.2685C20.6322 53.3711 20.8666 53.492 21.0234 53.6507C21.1611 53.7901 21.273 53.9918 21.273 54.35H22.473ZM24.5468 51.017H23.9468V52.8571L25.0315 51.3707L24.5468 51.017ZM24.5468 48.3H25.1468V47.7H24.5468V48.3ZM22.8968 48.3V47.7H22.2968V48.3H22.8968ZM22.8968 56H22.2968V56.6H22.8968V56ZM24.5468 56V56.6H25.1468V56H24.5468ZM26.5268 56H25.9268V56.6H26.5268V56ZM28.1768 56V56.6H28.7768V56H28.1768ZM26.1198 49.746C25.2545 49.746 24.4997 50.0636 24.0621 50.6633L25.0315 51.3707C25.1878 51.1564 25.5331 50.946 26.1198 50.946V49.746ZM25.1468 51.017V48.3H23.9468V51.017H25.1468ZM24.5468 47.7H22.8968V48.9H24.5468V47.7ZM22.2968 48.3V56H23.4968V48.3H22.2968ZM22.8968 56.6H24.5468V55.4H22.8968V56.6ZM25.1468 56V52.997H23.9468V56H25.1468ZM25.1468 52.997C25.1468 52.7099 25.2223 52.5963 25.262 52.5555C25.3 52.5163 25.3823 52.464 25.5698 52.464V51.264C25.1523 51.264 24.7231 51.3877 24.4008 51.7198C24.0802 52.0502 23.9468 52.5031 23.9468 52.997H25.1468ZM25.5698 52.464C25.7159 52.464 25.7945 52.507 25.8325 52.5432C25.8644 52.5736 25.9268 52.6545 25.9268 52.865H27.1268C27.1268 52.3935 26.9747 51.9739 26.6601 51.6743C26.3516 51.3805 25.9517 51.264 25.5698 51.264V52.464ZM25.9268 52.865V56H27.1268V52.865H25.9268ZM26.5268 56.6H28.1768V55.4H26.5268V56.6ZM28.7768 56V52.623H27.5768V56H28.7768ZM28.7768 52.623C28.7768 51.7494 28.4957 51.0209 27.9938 50.508C27.494 49.9972 26.8194 49.746 26.1198 49.746V50.946C26.5312 50.946 26.8851 51.0908 27.1361 51.3473C27.3849 51.6016 27.5768 52.0116 27.5768 52.623H28.7768ZM32.1499 56.754C34.0923 56.754 35.6649 55.2263 35.6649 53.25H34.4649C34.4649 54.5517 33.4415 55.554 32.1499 55.554V56.754ZM35.6649 53.25C35.6649 51.2737 34.0923 49.746 32.1499 49.746V50.946C33.4415 50.946 34.4649 51.9483 34.4649 53.25H35.6649ZM32.1499 49.746C30.2075 49.746 28.6349 51.2737 28.6349 53.25H29.8349C29.8349 51.9483 30.8583 50.946 32.1499 50.946V49.746ZM28.6349 53.25C28.6349 55.2263 30.2075 56.754 32.1499 56.754V55.554C30.8583 55.554 29.8349 54.5517 29.8349 53.25H28.6349ZM32.1499 53.948C31.7663 53.948 31.4849 53.6996 31.4849 53.25H30.2849C30.2849 54.3624 31.1035 55.148 32.1499 55.148V53.948ZM31.4849 53.25C31.4849 52.8004 31.7663 52.552 32.1499 52.552V51.352C31.1035 51.352 30.2849 52.1376 30.2849 53.25H31.4849ZM32.1499 52.552C32.5335 52.552 32.8149 52.8004 32.8149 53.25H34.0149C34.0149 52.1376 33.1963 51.352 32.1499 51.352V52.552ZM32.8149 53.25C32.8149 53.6996 32.5335 53.948 32.1499 53.948V55.148C33.1963 55.148 34.0149 54.3624 34.0149 53.25H32.8149ZM37.8482 51.017H37.2482V52.623L38.3012 51.4104L37.8482 51.017ZM37.8482 50.5H38.4482V49.9H37.8482V50.5ZM36.1982 50.5V49.9H35.5982V50.5H36.1982ZM36.1982 58.2H35.5982V58.8H36.1982V58.2ZM37.8482 58.2V58.8H38.4482V58.2H37.8482ZM37.8482 55.483L38.3012 55.0896L37.2482 53.877V55.483H37.8482ZM39.4872 49.746C38.6005 49.746 37.887 50.0572 37.3951 50.6236L38.3012 51.4104C38.5353 51.1408 38.8999 50.946 39.4872 50.946V49.746ZM38.4482 51.017V50.5H37.2482V51.017H38.4482ZM37.8482 49.9H36.1982V51.1H37.8482V49.9ZM35.5982 50.5V58.2H36.7982V50.5H35.5982ZM36.1982 58.8H37.8482V57.6H36.1982V58.8ZM38.4482 58.2V55.483H37.2482V58.2H38.4482ZM37.3951 55.8764C37.887 56.4428 38.6005 56.754 39.4872 56.754V55.554C38.8999 55.554 38.5353 55.3592 38.3012 55.0896L37.3951 55.8764ZM39.4872 56.754C41.3083 56.754 42.7162 55.1695 42.7162 53.25H41.5162C41.5162 54.6085 40.5481 55.554 39.4872 55.554V56.754ZM42.7162 53.25C42.7162 51.3305 41.3083 49.746 39.4872 49.746V50.946C40.5481 50.946 41.5162 51.8915 41.5162 53.25H42.7162ZM39.1572 53.992C38.9164 53.992 38.7485 53.9123 38.6423 53.8061C38.5371 53.7009 38.4482 53.5254 38.4482 53.25H37.2482C37.2482 53.7996 37.4342 54.2951 37.7938 54.6546C38.1523 55.0132 38.6389 55.192 39.1572 55.192V53.992ZM38.4482 53.25C38.4482 52.9746 38.5371 52.7991 38.6423 52.6939C38.7485 52.5877 38.9164 52.508 39.1572 52.508V51.308C38.6389 51.308 38.1523 51.4868 37.7938 51.8454C37.4342 52.2049 37.2482 52.7004 37.2482 53.25H38.4482ZM39.1572 52.508C39.3979 52.508 39.5658 52.5877 39.672 52.6939C39.7772 52.7991 39.8662 52.9746 39.8662 53.25H41.0662C41.0662 52.7004 40.8801 52.2049 40.5206 51.8454C40.162 51.4868 39.6754 51.308 39.1572 51.308V52.508ZM39.8662 53.25C39.8662 53.5254 39.7772 53.7009 39.672 53.8061C39.5658 53.9123 39.3979 53.992 39.1572 53.992V55.192C39.6754 55.192 40.162 55.0132 40.5206 54.6546C40.8801 54.2951 41.0662 53.7996 41.0662 53.25H39.8662Z" fill="#8A8A8A"/>
</svg>
